<svg xmlns="http://www.w3.org/2000/svg" width="1024" height="1024" viewBox="0 0 1024 1024" version="1.1"><path d="M 0 512.001 L 0 1024.002 512.250 1023.751 L 1024.500 1023.500 1024.751 511.750 L 1025.002 0 512.501 0 L 0 0 0 512.001 M 0.496 512.500 C 0.496 794.100, 0.610 909.151, 0.750 768.168 C 0.890 627.186, 0.890 396.786, 0.750 256.168 C 0.610 115.551, 0.496 230.900, 0.496 512.500 M 486.731 231.115 C 460.756 233.619, 435.493 243.236, 419.570 256.681 C 416.503 259.271, 414.732 260, 411.504 260 C 401.230 260, 383.122 265.397, 368.170 272.914 C 348.259 282.926, 331.932 297.778, 319.158 317.500 C 315.596 323, 310.048 331.457, 306.830 336.293 C 294.776 354.408, 289.560 368.025, 288.187 384.967 L 287.500 393.434 282.373 396.467 C 265.217 406.616, 254.037 421.045, 247.867 441 C 244.645 451.420, 244.557 472.494, 247.699 481.381 C 249.734 487.138, 249.739 487.328, 247.929 490.395 C 244.595 496.047, 242.678 506.695, 242.586 520.076 L 242.500 532.653 238 538.554 C 235.525 541.800, 232.677 545.773, 231.670 547.383 C 211.769 579.225, 212.352 625.613, 233.186 667.828 C 251.996 705.944, 283.571 737.441, 323.673 758.093 C 359.284 776.432, 396.784 783.620, 427.575 778.009 C 440.408 775.671, 447.397 773.548, 459 768.465 C 480.752 758.936, 484.395 757.678, 490.500 757.588 L 496.500 757.500 497.021 780 C 497.307 792.375, 497.909 803.264, 498.358 804.198 C 499.677 806.942, 505.779 811.093, 509.270 811.620 C 513.131 812.203, 518.505 809.542, 521.468 805.578 C 523.331 803.085, 523.541 800.979, 524 780.180 L 524.500 757.500 528.092 757.199 C 532.290 756.847, 544.760 760.813, 560.500 767.505 C 575.110 773.717, 578.314 774.710, 592.958 777.568 C 611.447 781.177, 624.240 780.937, 646.242 776.565 C 655.750 774.676, 665.548 772.272, 668.015 771.223 C 670.482 770.174, 673.850 768.984, 675.500 768.580 C 679.937 767.492, 698.175 758.792, 708.600 752.790 C 752.379 727.585, 787.223 684.878, 799.953 640.822 C 804.472 625.184, 806.275 610.873, 805.475 597 C 804.122 573.524, 798.449 557.433, 784.992 538.904 L 780.202 532.308 780.712 523.904 C 781.284 514.477, 779.213 500.215, 776.072 491.948 C 774.248 487.147, 774.225 486.446, 775.662 479.678 C 777.762 469.791, 776.974 447.917, 774.215 439.500 C 771.670 431.737, 767.276 422.667, 763.314 417 C 758.631 410.302, 748.385 400.776, 740.750 396.023 L 734 391.821 733.978 385.660 C 733.944 375.915, 730.573 362.520, 725.758 353 C 723.394 348.325, 715.684 335.831, 708.625 325.235 C 694.727 304.373, 685.496 293.952, 672 283.886 C 654.443 270.791, 627.463 260.076, 611.900 260.017 C 608.280 260.004, 606.379 259.308, 602.978 256.750 C 585.340 243.488, 575.136 238.713, 554.500 234.067 C 537.305 230.195, 509.050 228.964, 486.731 231.115 M 529 258.612 C 529 258.770, 530.334 260.835, 531.964 263.200 C 539.603 274.280, 548.476 279.364, 566.500 282.985 C 572.550 284.201, 578.487 285.334, 579.693 285.503 C 580.899 285.673, 582.361 286.105, 582.943 286.465 C 584.839 287.636, 584.094 280.888, 581.944 277.409 C 579.368 273.241, 566.763 265.465, 558.569 262.989 C 549.877 260.363, 537.123 257.981, 532.750 258.165 C 530.688 258.253, 529 258.454, 529 258.612 M 482 259.526 C 481.175 259.688, 477.125 260.345, 473 260.987 C 463.883 262.406, 458.524 264.290, 450 269.071 C 443.692 272.609, 437 279.562, 437 282.578 C 437 285.947, 460.668 282.954, 470.850 278.297 C 476.603 275.666, 487 266.690, 487 264.355 C 487 263.610, 487.450 263, 488 263 C 488.550 263, 489 262.100, 489 261 C 489 259.044, 486.811 258.583, 482 259.526 M 376.750 300.816 C 375.238 300.990, 374 301.601, 374 302.173 C 374 302.746, 373.341 302.961, 372.536 302.652 C 370.989 302.059, 362.964 308.014, 354.675 315.906 C 348.790 321.509, 347.120 324.133, 349.715 323.700 C 350.697 323.536, 352.400 322.918, 353.500 322.325 C 356.680 320.613, 375.069 318.662, 382.613 319.236 C 390.507 319.836, 401.096 323.244, 405.542 326.614 C 409.260 329.432, 419.925 334.408, 420.664 333.669 C 421.674 332.660, 421.201 325.567, 420.100 325.200 C 419.495 324.998, 419 324.177, 419 323.375 C 419 319.072, 407.579 308.246, 398.748 304.177 C 394.069 302.021, 382.130 300.197, 376.750 300.816 M 637.500 302.025 C 622.590 302.934, 611.327 309.488, 604.419 321.273 C 596.171 335.346, 600.509 337.586, 615.573 327.034 C 624.313 320.912, 630.451 318.997, 641.288 319.015 C 648.254 319.026, 652.450 319.636, 658.500 321.515 C 667.543 324.324, 672 324.689, 672 322.621 C 672 321.115, 659.718 309.141, 655.269 306.308 C 653.746 305.339, 652.275 304.302, 652 304.003 C 650.351 302.211, 645.442 301.541, 637.500 302.025 M 347.127 346.874 C 336.711 350.561, 331.044 359.486, 331.012 372.250 C 330.998 377.609, 331.868 378.144, 334.610 374.464 C 336.705 371.652, 346.831 365.737, 351.500 364.596 C 353.227 364.175, 356.527 361.665, 359.277 358.682 C 363.174 354.455, 364.231 353.776, 365.012 355 C 365.760 356.172, 365.973 355.925, 365.985 353.869 C 366.004 350.633, 360.475 346.078, 355.730 345.420 C 353.954 345.174, 350.082 345.828, 347.127 346.874 M 660.267 347.250 C 658.793 349.133, 661.729 360.988, 663.833 361.654 C 675.248 365.265, 685.217 371.188, 687.197 375.533 C 687.815 376.890, 688.699 378, 689.161 378 C 690.445 378, 690.159 365.263, 688.770 360.616 C 687.183 355.303, 680.697 348.817, 675.384 347.230 C 670.040 345.633, 661.523 345.644, 660.267 347.250 M 446 350.094 C 446 350.592, 445.361 351, 444.580 351 C 443.799 351, 439.567 353.475, 435.175 356.500 C 430.784 359.525, 426.755 362, 426.223 362 C 425.690 362, 423.099 362.954, 420.464 364.119 C 416.143 366.030, 415.861 366.349, 417.587 367.369 C 418.639 367.991, 422.912 368.488, 427.081 368.474 C 433.944 368.451, 435.207 368.119, 440.402 364.974 C 443.558 363.063, 447.009 360.097, 448.070 358.382 C 450.630 354.245, 450.599 350.390, 448 349.710 C 446.900 349.423, 446 349.595, 446 350.094 M 572.250 350.737 C 569.507 351.679, 571.121 355.686, 576.250 360.670 C 583.599 367.811, 585.151 368.448, 594.858 368.305 C 605.264 368.153, 606.956 366.870, 599.826 364.538 C 596.910 363.584, 590.919 360.314, 586.512 357.271 C 578.477 351.722, 574.580 349.937, 572.250 350.737 M 241.265 359.207 C 240.687 359.918, 239.188 362.698, 237.933 365.385 C 235.974 369.581, 234.868 370.626, 230.077 372.799 C 221.285 376.788, 221.389 377.884, 231.028 382.742 C 235.247 384.868, 236.958 386.442, 238.500 389.616 C 242.892 398.655, 245.092 399.109, 248.388 391.658 C 250.465 386.961, 251.519 385.896, 257.125 382.825 C 261.598 380.374, 263.598 378.664, 263.829 377.093 C 264.061 375.517, 263.553 374.696, 262.111 374.319 C 256.266 372.790, 251.401 369.068, 248.468 363.879 C 245.360 358.380, 243.119 356.927, 241.265 359.207 M 777.282 362.357 C 775.954 365.089, 773.488 367.884, 770.824 369.672 C 768.454 371.264, 766.389 373.227, 766.235 374.033 C 766.075 374.872, 767.872 376.655, 770.432 378.198 C 772.895 379.682, 776.060 382.719, 777.467 384.948 C 780.865 390.331, 782.342 390.190, 785.416 384.192 C 786.349 382.372, 789.103 379.680, 791.538 378.210 C 793.972 376.739, 796.187 374.955, 796.459 374.245 C 796.752 373.482, 794.938 371.713, 792.019 369.917 C 788.930 368.016, 786.221 365.317, 784.778 362.701 C 781.657 357.043, 779.902 356.963, 777.282 362.357 M 503.500 385.692 C 484.934 387.345, 462.684 397.630, 449.558 410.627 C 436.753 423.306, 427.974 438.591, 423.782 455.500 C 420.633 468.203, 420.645 487.225, 423.808 498.333 C 427.160 510.099, 436.282 526.089, 444.918 535.334 C 454.508 545.600, 470.937 555.692, 486 560.569 C 493.233 562.911, 496.661 563.386, 509 563.757 C 522.507 564.163, 524.144 564.007, 532.907 561.480 C 544.586 558.111, 547.729 556.811, 556.381 551.769 C 576.093 540.281, 592.415 519.585, 597.450 499.693 C 601.508 483.662, 601.657 470.950, 597.986 453.841 C 590.307 418.048, 557.165 389.368, 519.564 385.975 C 514.029 385.476, 509.050 385.128, 508.500 385.202 C 507.950 385.276, 505.700 385.496, 503.500 385.692 M 507.315 397.985 C 506.114 398.481, 504.661 399.764, 504.088 400.836 C 503.431 402.064, 503.018 414.656, 502.972 434.878 C 502.905 464.594, 502.753 467.304, 500.921 471.446 C 498.629 476.628, 499.081 479.808, 502.613 483.341 C 505.890 486.617, 509.941 487.239, 515.552 485.328 C 519.207 484.082, 522.792 483.844, 531.868 484.245 C 538.266 484.528, 544.443 484.401, 545.597 483.963 C 548.045 483.033, 551.425 476.545, 550.403 474.739 C 550.018 474.058, 548.791 472.488, 547.677 471.250 C 545.762 469.123, 544.897 469, 531.826 469 L 518 469 518 435.611 C 518 405.266, 517.840 402.033, 516.250 400.153 C 514.155 397.677, 510.318 396.746, 507.315 397.985 M 479.073 405.635 C 476.351 409.095, 476.456 411.547, 479.455 414.545 C 484.097 419.188, 491.401 416.406, 491.221 410.063 C 491.024 403.132, 483.266 400.304, 479.073 405.635 M 533.228 404.230 C 528.853 406.339, 529.042 413.787, 533.523 415.829 C 537.328 417.562, 538.831 417.286, 541.548 414.354 C 544.651 411.006, 544.650 408.559, 541.545 405.455 C 538.903 402.812, 536.810 402.504, 533.228 404.230 M 455.039 421.189 C 451.402 425.092, 452.742 430.822, 457.778 432.908 C 464.231 435.581, 469.470 429.901, 466.440 423.515 C 464.120 418.626, 458.496 417.478, 455.039 421.189 M 556.390 422.519 C 553.212 425.697, 553.519 429.573, 557.163 432.281 C 563.890 437.281, 572.882 427.882, 567 422 C 564.194 419.194, 559.485 419.425, 556.390 422.519 M 439 446 C 436.209 448.791, 436.468 452.437, 439.635 454.927 C 443.130 457.677, 446.546 457.545, 449.545 454.545 C 452.540 451.551, 452.613 450.049, 449.927 446.635 C 447.330 443.333, 441.978 443.022, 439 446 M 572.530 445.967 C 567.955 451.022, 572.343 457.798, 579.750 457.115 C 584.234 456.702, 586.604 448.762, 583.171 445.655 C 580.622 443.348, 574.745 443.520, 572.530 445.967 M 436.321 470.189 C 435.123 470.768, 433.594 472.566, 432.923 474.185 C 430.034 481.160, 440.655 486.022, 445.272 479.837 C 447.865 476.364, 446.947 472.541, 443.035 470.518 C 439.667 468.777, 439.281 468.758, 436.321 470.189 M 577 472 C 574.345 474.655, 574.470 478.153, 577.314 480.826 C 580.389 483.714, 585.039 483.652, 587.826 480.686 C 590.629 477.701, 590.583 474.896, 587.686 472.174 C 584.740 469.407, 579.676 469.324, 577 472 M 364.712 477.678 C 363.178 477.932, 359.177 480.021, 355.821 482.320 C 351.155 485.517, 349.058 487.794, 346.907 492 C 343.307 499.040, 342.505 503.800, 344.214 507.989 L 345.554 511.273 349.795 505.655 C 356.907 496.236, 366.781 490, 374.584 490 C 380.370 490, 392.245 492.961, 393.708 494.768 C 394.946 496.297, 394.971 496.216, 393.925 494.072 C 392.112 490.359, 383.761 482.429, 379.230 480.118 C 374.872 477.894, 369.181 476.938, 364.712 477.678 M 639.500 481.230 C 634.908 484.394, 627.397 492.730, 628.313 493.646 C 628.527 493.860, 630.682 493.137, 633.101 492.040 C 638.077 489.782, 648.068 489.336, 654.382 491.089 C 658.903 492.344, 667.093 499.614, 670.185 505.116 C 673.825 511.592, 676.874 511.290, 677.382 504.403 C 678.043 495.458, 673.790 487.760, 665.127 482.218 C 660.278 479.116, 658.541 478.586, 652.019 478.214 C 644.771 477.801, 644.320 477.910, 639.500 481.230 M 574.315 495.985 C 572.018 496.934, 570 499.886, 570 502.298 C 570 503.084, 571.228 504.956, 572.730 506.457 C 579.129 512.856, 589.059 505.019, 583.250 498.153 C 581.155 495.677, 577.318 494.746, 574.315 495.985 M 439 498 C 436.325 500.675, 436.479 503.570, 439.455 506.545 C 442.815 509.905, 446.240 509.691, 449.411 505.923 C 452.418 502.349, 452.566 501.252, 450.443 498.223 C 448.367 495.258, 441.869 495.131, 439 498 M 456.311 517.772 C 451.815 521.320, 452.507 528.102, 457.561 530.023 C 460.957 531.314, 464.580 529.713, 466.452 526.093 C 468.515 522.103, 468.424 521.333, 465.545 518.455 C 462.679 515.588, 459.387 515.344, 456.311 517.772 M 556.635 518.073 C 552.217 521.547, 553.414 527.686, 558.956 529.982 C 561.519 531.043, 562.371 530.987, 564.459 529.619 C 570.092 525.928, 570.061 519.759, 564.397 517.392 C 560.080 515.589, 559.757 515.617, 556.635 518.073 M 480.395 532.728 C 476.476 536.027, 476.529 539.386, 480.565 543.422 C 484.150 547.007, 492 543.488, 492 538.296 C 492 532.980, 484.417 529.341, 480.395 532.728 M 532.174 533.314 C 527.645 538.136, 530.480 545, 537 545 C 543.983 545, 546.707 537.064, 541.096 533.068 C 537.329 530.386, 534.861 530.454, 532.174 533.314 M 506.025 537.975 C 502.915 541.085, 502.428 544.755, 504.719 547.837 C 507.381 551.420, 512.087 551.896, 514.908 548.868 C 521.040 542.286, 512.359 531.641, 506.025 537.975 M 277.500 626.465 C 279.700 628.491, 282.850 631.014, 284.500 632.071 C 286.150 633.128, 287.050 633.998, 286.500 634.006 C 284.659 634.030, 298.108 642.034, 306.853 646.118 C 318.087 651.365, 318.773 651.642, 323.500 652.859 C 343.978 658.131, 357.988 662.518, 375.500 669.143 C 384.220 672.442, 407.333 684.456, 413.338 688.811 C 416.177 690.870, 419.474 693.217, 420.665 694.027 C 425.648 697.416, 444.674 712.139, 446.750 714.212 C 447.988 715.447, 449 716.098, 449 715.658 C 449 715.217, 449.663 715.520, 450.473 716.331 C 452.782 718.639, 459.046 722.288, 459.655 721.679 C 460.541 720.792, 457.656 717.254, 447.746 707.072 C 423.536 682.200, 403.044 669.095, 372 658.633 C 358.874 654.210, 352.471 652.315, 327.500 645.467 C 320.900 643.656, 311.675 640.850, 307 639.229 C 299.248 636.543, 282.152 628.360, 276 624.393 C 274.625 623.506, 275.300 624.439, 277.500 626.465 M 733.500 631.054 C 724.097 635.686, 706.999 641.952, 694.426 645.373 C 650.002 657.460, 632.705 663.814, 614.212 674.840 C 601.228 682.581, 582.668 698.093, 571.815 710.275 C 561.025 722.384, 560.639 722.879, 562.164 722.632 C 563.425 722.428, 571.923 717.182, 573 715.943 C 573.275 715.627, 575.750 713.858, 578.500 712.013 C 581.250 710.168, 585.084 707.255, 587.020 705.540 C 599.869 694.155, 623.449 678.992, 639 672.117 C 650.685 666.950, 651.953 666.454, 661 663.510 C 665.675 661.989, 671.075 660.175, 673 659.481 C 674.925 658.786, 679.650 657.452, 683.500 656.516 C 701.980 652.025, 717.729 645.972, 729.461 638.851 C 739.385 632.827, 740.374 632.061, 741.872 629.250 C 743.444 626.299, 742.926 626.410, 733.500 631.054" stroke="none" fill="#feffed" fill-rule="evenodd"/><path d="M 504.206 231.741 C 507.895 231.932, 514.195 231.934, 518.206 231.743 C 522.218 231.553, 519.200 231.396, 511.500 231.395 C 503.800 231.393, 500.518 231.549, 504.206 231.741 M 498.429 283.500 C 498.429 296.150, 498.573 301.187, 498.747 294.694 C 498.922 288.200, 498.921 277.850, 498.746 271.694 C 498.571 265.537, 498.428 270.850, 498.429 283.500 M 506.728 384.722 C 508.503 384.943, 511.653 384.946, 513.728 384.730 C 515.802 384.513, 514.350 384.333, 510.500 384.328 C 506.650 384.324, 504.952 384.501, 506.728 384.722 M 517.443 433.500 C 517.443 450, 517.580 456.890, 517.748 448.812 C 517.915 440.733, 517.916 427.233, 517.748 418.812 C 517.581 410.390, 517.444 417, 517.443 433.500 M 624.469 437.250 L 618.500 443.500 624.750 437.531 C 628.188 434.249, 631 431.436, 631 431.281 C 631 430.542, 630.013 431.444, 624.469 437.250 M 246.355 460.500 C 246.352 465.450, 246.521 467.601, 246.731 465.280 C 246.940 462.959, 246.943 458.909, 246.736 456.280 C 246.530 453.651, 246.358 455.550, 246.355 460.500 M 484.752 587.227 C 489.589 590.202, 491.954 592.964, 488.543 591.655 C 487.330 591.190, 487.278 591.515, 488.228 593.601 C 489.563 596.532, 487.643 600.674, 482.854 605.194 C 479.710 608.161, 479.192 610, 481.500 610 C 482.325 610, 483 610.436, 483 610.969 C 483 611.501, 482.405 611.709, 481.678 611.430 C 480.924 611.140, 479.860 612.013, 479.200 613.461 C 477.847 616.429, 476.488 616.695, 475.125 614.258 C 474.580 613.284, 473.786 612.904, 473.325 613.395 C 472.871 613.878, 473.065 614.476, 473.756 614.722 C 474.447 614.969, 474.772 615.560, 474.478 616.036 C 474.184 616.512, 470.693 613.634, 466.722 609.641 C 460.759 603.647, 460.834 604.270, 466.871 610.883 C 474.895 619.672, 486 637.297, 486 641.241 C 486 644.770, 483.624 649.546, 481.455 650.379 C 475.974 652.482, 472.761 650.558, 467.460 642 C 465.926 639.525, 464.160 637.050, 463.535 636.500 C 462.909 635.950, 460.791 633.475, 458.828 631 C 445.034 613.612, 427.948 603.072, 413.474 603.021 C 404.282 602.989, 391.767 604.798, 378.500 608.077 C 359.829 612.690, 349.269 614.852, 341.813 615.587 C 338.042 615.959, 334.752 616.592, 334.504 616.993 C 334.060 617.712, 349.557 623.001, 365.746 627.655 C 390.428 634.751, 393.535 635.779, 404.500 640.482 C 411.564 643.513, 424.258 650.084, 428.440 652.876 C 430.673 654.367, 433.625 656.076, 435 656.673 C 437.576 657.793, 460.760 676.895, 467.024 683.058 C 471.050 687.020, 479.409 696.223, 486 703.951 C 488.475 706.853, 490.960 709.739, 491.521 710.364 C 492.083 710.989, 493.546 712.798, 494.771 714.385 L 497 717.270 497.011 696.885 C 497.017 685.673, 497.309 660.276, 497.660 640.447 C 498.010 620.618, 497.979 602.704, 497.592 600.637 C 496.747 596.134, 491.584 590.119, 485.507 586.557 C 479.183 582.851, 478.549 583.413, 484.752 587.227 M 682.768 589.725 C 684.565 589.947, 687.265 589.943, 688.768 589.715 C 690.271 589.486, 688.800 589.304, 685.500 589.310 C 682.200 589.315, 680.971 589.502, 682.768 589.725 M 522.454 633.500 C 522.453 654.400, 522.586 663.092, 522.748 652.816 C 522.911 642.540, 522.911 625.440, 522.749 614.816 C 522.587 604.192, 522.454 612.600, 522.454 633.500 M 804.320 605 C 804.320 608.575, 804.502 610.038, 804.723 608.250 C 804.945 606.462, 804.945 603.538, 804.723 601.750 C 804.502 599.962, 804.320 601.425, 804.320 605 M 607.776 601.733 C 610.128 601.945, 613.728 601.942, 615.776 601.727 C 617.824 601.512, 615.900 601.339, 611.500 601.343 C 607.100 601.346, 605.424 601.522, 607.776 601.733 M 569 623.500 C 564.903 627.625, 561.775 631, 562.050 631 C 562.325 631, 565.903 627.625, 570 623.500 C 574.097 619.375, 577.225 616, 576.950 616 C 576.675 616, 573.097 619.375, 569 623.500 M 728.851 687.750 C 727.579 689.813, 724.092 694.425, 721.102 698 C 718.112 701.575, 716.886 703.389, 718.379 702.032 C 722.545 698.243, 733.065 684, 731.697 684 C 731.403 684, 730.123 685.688, 728.851 687.750 M 298.747 695.500 C 299.886 697.150, 302.308 699.850, 304.129 701.500 C 306.576 703.716, 306.299 703.194, 303.066 699.500 C 297.165 692.756, 296.300 691.955, 298.747 695.500 M 307.289 705.638 C 308.153 707.062, 322 719.381, 322 718.726 C 322 718.461, 318.535 715.152, 314.300 711.373 C 310.064 707.593, 306.910 705.012, 307.289 705.638 M 332.859 726.330 C 333.468 727.063, 336.336 728.933, 339.233 730.485 C 345.934 734.075, 344.989 732.968, 337.506 728.461 C 334.342 726.556, 332.250 725.597, 332.859 726.330 M 611.287 748.740 C 614.469 748.939, 619.419 748.937, 622.287 748.736 C 625.154 748.535, 622.550 748.372, 616.500 748.374 C 610.450 748.376, 608.104 748.541, 611.287 748.740 M 522.423 780.500 C 522.424 792.050, 522.570 796.638, 522.747 790.696 C 522.924 784.753, 522.923 775.303, 522.745 769.696 C 522.567 764.088, 522.422 768.950, 522.423 780.500" stroke="none" fill="#0c4f9d" fill-rule="evenodd"/><path d="M 492.500 258.892 C 496.261 259.464, 496.536 259.739, 497.108 263.500 L 497.716 267.500 497.858 263.950 C 497.936 261.998, 497.460 259.860, 496.800 259.200 C 496.140 258.540, 494.002 258.064, 492.050 258.142 L 488.500 258.284 492.500 258.892 M 523.461 309 C 523.461 334.025, 523.590 344.263, 523.749 331.750 C 523.908 319.238, 523.908 298.763, 523.749 286.250 C 523.590 273.738, 523.461 283.975, 523.461 309 M 436.168 284.595 C 436.039 287.741, 436.522 289.132, 438.250 290.595 C 440.482 292.485, 440.487 292.484, 438.824 290.500 C 437.902 289.400, 436.965 286.700, 436.742 284.500 L 436.336 280.500 436.168 284.595 M 690.328 371.500 C 690.333 375.350, 690.513 376.802, 690.730 374.728 C 690.946 372.653, 690.943 369.503, 690.722 367.728 C 690.501 365.952, 690.324 367.650, 690.328 371.500 M 625.528 436.972 C 621.723 440.806, 618.810 444.078, 619.055 444.243 C 619.300 444.407, 622.617 441.270, 626.426 437.271 C 630.236 433.272, 633.149 430, 632.900 430 C 632.650 430, 629.333 433.137, 625.528 436.972 M 332.250 439.735 C 334.863 439.941, 339.137 439.941, 341.750 439.735 C 344.363 439.529, 342.225 439.360, 337 439.360 C 331.775 439.360, 329.637 439.529, 332.250 439.735 M 268.336 458 C 268.336 462.125, 268.513 463.813, 268.728 461.750 C 268.944 459.688, 268.944 456.313, 268.728 454.250 C 268.513 452.188, 268.336 453.875, 268.336 458 M 601.310 475.500 C 601.315 478.800, 601.502 480.029, 601.725 478.232 C 601.947 476.435, 601.943 473.735, 601.715 472.232 C 601.486 470.729, 601.304 472.200, 601.310 475.500 M 324.336 504 C 324.336 508.125, 324.513 509.813, 324.728 507.750 C 324.944 505.688, 324.944 502.313, 324.728 500.250 C 324.513 498.188, 324.336 499.875, 324.336 504 M 697.310 504.500 C 697.315 507.800, 697.502 509.029, 697.725 507.232 C 697.947 505.435, 697.943 502.735, 697.715 501.232 C 697.486 499.729, 697.304 501.200, 697.310 504.500 M 605.111 538.188 C 602.763 541.592, 601.552 543.787, 602.421 543.066 C 603.749 541.963, 604 542.012, 604 543.378 C 604 544.270, 603.550 545, 603 545 C 602.450 545, 601.663 545.011, 601.250 545.025 C 599.723 545.076, 587.120 558.384, 587.703 559.329 C 588.037 559.868, 587.836 560.017, 587.259 559.660 C 586.681 559.303, 585.364 559.796, 584.333 560.755 C 583.302 561.715, 582.895 562.163, 583.429 561.750 C 583.963 561.337, 584.821 561, 585.335 561 C 585.849 561, 585.126 561.900, 583.727 563 C 580.835 565.275, 579.539 565.587, 580.613 563.750 C 581.015 563.063, 580.384 563.341, 579.212 564.369 C 578.039 565.397, 577.174 566.691, 577.290 567.244 C 577.405 567.797, 576.875 568.477, 576.111 568.755 C 575.219 569.079, 574.988 568.829, 575.465 568.056 C 575.988 567.210, 575.583 567.243, 574.105 568.167 C 571.797 569.608, 571.336 571, 573.167 571 C 573.808 571, 574.044 571.289, 573.691 571.643 C 573.337 571.996, 572.278 571.658, 571.337 570.893 C 569.816 569.655, 569.705 569.711, 570.336 571.391 C 570.872 572.820, 570.734 573.049, 569.773 572.329 C 568.900 571.675, 566.641 572.382, 562.580 574.581 C 557.905 577.113, 557.063 577.908, 558.580 578.358 C 559.636 578.672, 559.204 578.771, 557.620 578.578 C 556.036 578.385, 552.727 579.118, 550.267 580.206 C 547.808 581.294, 542.579 583.053, 538.648 584.116 C 534.716 585.178, 530.449 586.583, 529.165 587.238 C 526.254 588.723, 523.796 593.304, 524.677 595.601 C 525.128 596.775, 524.965 597.097, 524.170 596.605 C 523.295 596.065, 523.001 599.874, 523.005 611.691 C 523.012 632.234, 524.035 648.139, 525.154 645.113 C 525.610 643.880, 526.457 643.164, 527.035 643.522 C 527.614 643.880, 528.697 643.666, 529.442 643.048 C 530.187 642.430, 531.744 641.742, 532.903 641.519 C 534.739 641.165, 534.927 641.459, 534.364 643.806 C 533.098 649.089, 535.059 645.194, 536.553 639.459 C 537.390 636.245, 539.023 632.014, 540.181 630.057 C 546.392 619.567, 554.159 608.875, 559.452 603.529 C 562.735 600.213, 565.326 597.162, 565.210 596.750 C 565.095 596.337, 565.374 596.112, 565.831 596.250 C 566.766 596.532, 579 587.884, 579 586.941 C 579 586.607, 579.576 586.333, 580.281 586.333 C 582.153 586.333, 587.065 582.914, 586.502 582.004 C 586.238 581.576, 586.804 581.288, 587.761 581.363 C 588.934 581.455, 589.478 580.801, 589.431 579.351 C 589.387 577.971, 589.833 577.382, 590.676 577.706 C 591.398 577.983, 591.694 578.686, 591.334 579.268 C 590.974 579.850, 594.387 577.453, 598.919 573.941 C 603.450 570.428, 607.338 567.261, 607.560 566.903 C 607.781 566.545, 606.810 565.008, 605.401 563.488 C 603.993 561.968, 603.514 560.983, 604.337 561.299 C 605.921 561.907, 607 560.132, 607 556.918 C 607 555.863, 607.455 555, 608.012 555 C 608.607 555, 608.965 552.288, 608.882 548.427 C 608.771 543.319, 608.344 541.607, 606.965 540.746 C 605.353 539.739, 605.329 539.427, 606.705 537.328 C 608.152 535.120, 610 535.002, 610 537.118 C 610 537.668, 609.592 537.866, 609.093 537.558 C 608.590 537.247, 608.461 538, 608.803 539.249 C 609.308 541.094, 609.485 541.182, 609.785 539.738 C 609.987 538.769, 610.567 538.233, 611.076 538.547 C 611.584 538.861, 612 537.981, 612 536.590 C 612 534.638, 611.619 534.209, 610.326 534.705 C 609.058 535.192, 608.808 534.942, 609.295 533.674 C 610.373 530.864, 609.560 531.741, 605.111 538.188 M 410.031 537.500 C 410.031 538.050, 410.450 539.162, 410.962 539.972 C 411.755 541.227, 411.993 541.182, 412.574 539.668 C 413.205 538.024, 413.432 538.057, 415.628 540.120 C 416.933 541.346, 417.986 541.933, 417.969 541.424 C 417.911 539.734, 413.181 536.898, 412.435 538.105 C 411.957 538.879, 411.491 538.804, 410.890 537.857 C 410.417 537.111, 410.031 536.950, 410.031 537.500 M 420.005 542.715 C 420.002 543.383, 419.110 544.406, 418.023 544.988 C 416.368 545.874, 416.149 545.776, 416.682 544.387 C 417.639 541.891, 414.740 543.181, 413.399 545.847 C 411.684 549.255, 411.088 549.498, 409.521 547.427 C 408.279 545.785, 408.059 545.743, 408.032 547.143 C 408.014 548.047, 408.675 549.045, 409.500 549.362 C 411.893 550.280, 411.248 551.718, 407.925 552.876 C 406.234 553.466, 405.112 554.371, 405.431 554.889 C 405.751 555.406, 405.447 556.057, 404.756 556.336 C 403.821 556.713, 403.851 556.862, 404.872 556.921 C 405.933 556.982, 405.981 557.318, 405.086 558.396 C 404.156 559.517, 404.674 560.254, 407.714 562.136 C 409.796 563.425, 412.108 564.342, 412.850 564.173 C 413.593 564.004, 413.967 564.245, 413.681 564.707 C 413.395 565.170, 416.837 568.143, 421.330 571.313 C 425.824 574.484, 430.868 578.170, 432.540 579.505 L 435.580 581.932 435.821 578.769 C 436.101 575.097, 436.801 574.059, 437.851 575.759 C 438.350 576.567, 439.168 575.986, 440.353 573.980 C 441.321 572.341, 442.524 571, 443.025 571 C 443.527 571, 443.678 570.325, 443.362 569.500 C 442.630 567.592, 444.060 567.578, 446.559 569.468 C 447.924 570.501, 448.079 570.946, 447.083 570.968 C 446.304 570.986, 445.902 571.236, 446.190 571.524 C 446.478 571.811, 447.430 571.772, 448.304 571.437 C 449.504 570.976, 448.371 569.584, 443.698 565.772 C 440.289 562.992, 434.804 557.968, 431.509 554.609 C 428.214 551.249, 425.143 548.624, 424.685 548.775 C 424.226 548.926, 424.067 548.701, 424.330 548.274 C 424.594 547.848, 423.730 546.149, 422.410 544.500 C 421.090 542.850, 420.008 542.047, 420.005 542.715 M 600.306 546.917 C 600.413 547.237, 600.180 547.500, 599.788 547.500 C 598.674 547.500, 589 557.305, 589 558.435 C 589 558.990, 589.691 558.458, 590.536 557.252 C 591.380 556.047, 593.672 554.300, 595.629 553.372 C 598.657 551.935, 599.331 551.893, 600.159 553.092 C 600.880 554.136, 600.979 553.955, 600.543 552.391 C 600.186 551.111, 600.553 549.786, 601.477 549.019 C 603.394 547.428, 603.426 546.333, 601.556 546.333 C 600.761 546.333, 600.199 546.596, 600.306 546.917 M 628 547.895 C 626.625 548.277, 625.493 549.020, 625.485 549.545 C 625.476 550.070, 625.112 551.063, 624.676 551.750 C 624.239 552.438, 624.303 553, 624.819 553 C 626.175 553, 628.100 550.433, 627.325 549.658 C 626.963 549.296, 627.642 549, 628.833 549 C 630.025 549, 631 548.550, 631 548 C 631 547.450, 630.888 547.045, 630.750 547.100 C 630.612 547.155, 629.375 547.512, 628 547.895 M 618.750 553.447 C 615.770 557.182, 615.125 558.971, 617.456 557.036 C 618.257 556.372, 619.434 556.150, 620.071 556.544 C 620.795 556.991, 619.498 558.337, 616.614 560.132 C 614.076 561.711, 612 563.224, 612 563.493 C 612 563.761, 614.250 562.597, 617 560.905 C 621.668 558.033, 623.326 556, 621 556 C 620.450 556, 620 555.339, 620 554.531 C 620 553.585, 620.622 553.263, 621.750 553.626 C 623.232 554.102, 623.270 554.021, 622 553.094 C 620.667 552.122, 620.667 551.891, 622 551.015 C 622.825 550.474, 623.050 550.024, 622.500 550.015 C 621.950 550.007, 620.263 551.551, 618.750 553.447 M 280.823 562.663 C 283.272 566.202, 291.685 574.011, 296.406 577.129 C 298.240 578.340, 297.871 577.845, 295.500 575.914 C 293.300 574.122, 288.605 569.695, 285.067 566.078 C 281.529 562.460, 279.619 560.923, 280.823 562.663 M 688.010 561.973 C 686.641 562.310, 685.966 562.844, 686.510 563.160 C 688.124 564.097, 693.918 563.941, 694.535 562.944 C 694.848 562.437, 694.360 562.308, 693.451 562.657 C 692.542 563.006, 691.506 562.857, 691.149 562.326 C 690.792 561.795, 689.380 561.636, 688.010 561.973 M 735 561.961 C 735 562.489, 735.635 563.501, 736.412 564.211 C 737.618 565.312, 737.509 565.864, 735.665 568 C 734.085 569.830, 734.400 569.696, 736.840 567.500 C 738.673 565.850, 740.649 563.600, 741.232 562.500 C 742.251 560.575, 742.217 560.565, 740.317 562.250 C 737.898 564.394, 737 564.462, 737 562.500 C 737 561.675, 736.550 561, 736 561 C 735.450 561, 735 561.432, 735 561.961 M 363 564.607 C 369.740 567.740, 373.251 569.082, 373.654 568.679 C 373.878 568.455, 371.910 567.363, 369.280 566.251 C 363.198 563.678, 358.174 562.364, 363 564.607 M 603.356 564.547 C 603.813 565.987, 603.193 567.025, 600.991 568.500 C 599.349 569.600, 598.004 570.954, 598.003 571.509 C 598.001 572.065, 597.056 573.108, 595.903 573.829 C 594.749 574.549, 594.036 575.369, 594.317 575.650 C 594.849 576.183, 606.016 567.459, 606.051 566.483 C 606.062 566.178, 605.321 565.178, 604.404 564.261 C 602.847 562.704, 602.777 562.723, 603.356 564.547 M 655.500 564.986 C 652.457 566.457, 652.158 566.783, 654.250 566.351 C 656.931 565.797, 658.261 567.413, 655.799 568.234 C 654.865 568.545, 654.865 568.798, 655.799 569.376 C 656.460 569.784, 657 569.641, 657 569.059 C 657 568.477, 657.505 568, 658.122 568 C 658.933 568, 658.921 568.390, 658.081 569.403 C 657.186 570.480, 657.216 570.905, 658.208 571.236 C 658.919 571.473, 658.020 571.667, 656.211 571.667 C 654.402 571.667, 653.449 571.341, 654.094 570.942 C 654.796 570.508, 653.955 569.929, 652 569.500 C 649.516 568.954, 649.065 568.551, 650.117 567.815 C 651.255 567.019, 651.235 566.928, 650 567.299 C 649.175 567.547, 648.631 568.311, 648.791 568.998 C 648.955 569.700, 648.481 570.015, 647.708 569.718 C 646.944 569.425, 646.333 569.815, 646.333 570.595 C 646.333 572.222, 647.599 572.459, 648.500 571 C 648.840 570.450, 649.879 570.030, 650.809 570.068 C 652.076 570.118, 651.925 570.412, 650.209 571.239 C 648.913 571.863, 648.143 572.930, 648.436 573.694 C 648.843 574.753, 648.527 574.817, 646.977 573.988 C 644.662 572.749, 644.319 574.190, 646.500 576 C 647.325 576.685, 648 577.640, 648 578.122 C 648 578.605, 647.325 579, 646.500 579 C 645.675 579, 645 579.500, 645 580.111 C 645 580.817, 646.187 581.012, 648.250 580.646 C 650.038 580.329, 653.862 579.771, 656.750 579.406 C 661.996 578.743, 662 578.740, 661.993 575.121 C 661.990 573.130, 661.117 570.180, 660.053 568.567 C 658.248 565.828, 658.231 565.548, 659.810 564.348 C 662.311 562.447, 660.065 562.779, 655.500 564.986 M 715.250 569.706 C 713.653 570.013, 713 570.844, 713 572.570 C 713 573.906, 713.563 575.030, 714.250 575.068 C 715.853 575.154, 712.329 576.679, 708.750 577.448 C 705.860 578.068, 704.877 581, 707.559 581 C 708.416 581, 708.840 581.450, 708.500 582 C 708.160 582.550, 708.310 583, 708.834 583 C 709.358 583, 710.056 582.296, 710.386 581.437 C 710.716 580.577, 711.439 580.153, 711.993 580.496 C 712.547 580.838, 713 580.611, 713 579.992 C 713 579.325, 713.918 579.093, 715.250 579.423 C 716.487 579.730, 716.938 579.723, 716.250 579.407 C 715.563 579.092, 715 578.421, 715 577.917 C 715 577.413, 715.563 576.986, 716.250 576.968 C 716.938 576.951, 718.400 576.219, 719.500 575.343 C 721.473 573.771, 721.470 573.757, 719.250 574.281 C 718.013 574.574, 717 574.405, 717 573.906 C 717 573.408, 718.125 573, 719.500 573 C 721.333 573, 722 572.467, 722 571 C 722 568.965, 720.544 568.686, 715.250 569.706 M 669.385 573.765 C 668.771 574.169, 667.954 575.512, 667.568 576.749 C 667.017 578.513, 666.491 578.798, 665.126 578.068 C 663.724 577.317, 663.172 577.705, 662.280 580.068 C 661.325 582.600, 661.407 583, 662.887 583 C 663.829 583, 665.028 583.394, 665.550 583.876 C 666.072 584.357, 668.975 585.016, 672 585.340 C 675.204 585.683, 676.665 585.588, 675.500 585.113 C 674.218 584.590, 675.596 584.395, 679.337 584.570 C 682.548 584.719, 685.436 585.102, 685.754 585.421 C 686.860 586.527, 691.142 586.039, 690.431 584.888 C 689.369 583.170, 692.210 581.911, 693.442 583.553 C 694.185 584.542, 694.947 584.670, 696 583.981 C 697.317 583.120, 697.321 582.885, 696.028 582.054 C 694.431 581.027, 694.927 580.686, 699.500 579.675 C 700.600 579.431, 698.013 579.180, 693.750 579.116 C 687.676 579.025, 686 579.306, 686 580.417 C 686 581.196, 686.563 582.039, 687.250 582.290 C 687.938 582.541, 687.320 582.691, 685.878 582.623 C 684.190 582.544, 683.430 582.044, 683.746 581.220 C 684.301 579.772, 680.400 576, 678.347 576 C 677.606 576, 677 575.325, 677 574.500 C 677 572.902, 671.501 572.371, 669.385 573.765 M 654.484 584.940 C 658.875 585.999, 662.633 586.700, 662.835 586.498 C 663.377 585.957, 656.174 584.161, 651 583.548 C 648.320 583.230, 649.730 583.793, 654.484 584.940 M 682.500 588 C 678.941 588.637, 679.216 588.724, 685 588.788 C 689.457 588.837, 690.871 588.589, 689.500 588 C 688.400 587.527, 687.275 587.173, 687 587.212 C 686.725 587.252, 684.700 587.606, 682.500 588 M 267.132 618.830 C 268.982 621.315, 280.081 632, 280.811 632 C 281.158 632, 278.530 629.062, 274.971 625.471 C 271.412 621.880, 268.725 618.660, 269 618.316 C 269.275 617.972, 268.687 617.571, 267.694 617.426 C 266.168 617.202, 266.081 617.419, 267.132 618.830 M 742.500 630.618 C 735.900 636.952, 727.516 644.586, 723.870 647.583 C 717.875 652.509, 714.684 654.538, 704.204 660.086 C 702.392 661.046, 700.367 662.254, 699.704 662.772 C 699.042 663.289, 696.025 665.056, 693 666.699 C 689.975 668.342, 684.565 671.489, 680.977 673.693 C 668.720 681.223, 629.440 700.715, 614.500 706.681 C 611.200 707.998, 604.883 710.859, 600.461 713.038 C 596.040 715.217, 591.410 717, 590.171 717 C 588.933 717, 586.251 717.845, 584.210 718.878 C 582.170 719.911, 578.925 721.088, 577 721.493 C 575.075 721.899, 573.050 722.569, 572.500 722.983 C 570.555 724.445, 558.685 728.093, 557.434 727.613 C 556.736 727.345, 555.898 727.823, 555.571 728.674 C 555.138 729.803, 555.423 730.052, 556.620 729.592 C 557.524 729.245, 566.982 727.178, 577.637 724.997 C 638.981 712.444, 672.350 696.181, 713 659.028 C 719.325 653.247, 724.725 648.288, 725 648.009 C 725.275 647.729, 727.750 645.514, 730.500 643.086 C 740.664 634.113, 756.108 618.883, 754.872 619.051 C 754.668 619.078, 749.100 624.284, 742.500 630.618 M 283 633.330 C 283 636.113, 323.236 671.788, 338.555 682.587 C 364.910 701.167, 406.728 718.271, 438.763 723.573 C 449.953 725.425, 463.522 728.674, 466.317 730.170 C 467.793 730.959, 468.128 730.885, 467.782 729.847 C 467.535 729.106, 466.846 728.500, 466.250 728.500 C 465.654 728.500, 464.829 728.163, 464.417 727.750 C 464.004 727.337, 462.815 727, 461.774 727 C 460.734 727, 460.128 726.601, 460.430 726.114 C 460.731 725.626, 460.082 724.993, 458.987 724.707 C 457.723 724.376, 457.240 724.579, 457.663 725.263 C 458.107 725.982, 457.692 726.075, 456.414 725.541 C 455.361 725.102, 453.488 724.523, 452.250 724.255 C 451.012 723.986, 450 723.426, 450 723.008 C 450 722.591, 448.717 721.993, 447.150 721.680 C 445.582 721.366, 441.870 720.017, 438.900 718.682 C 435.930 717.346, 429.675 715.012, 425 713.495 C 420.325 711.978, 415.375 710.138, 414 709.408 C 412.625 708.677, 408.350 706.672, 404.500 704.952 C 388.845 697.960, 355.787 680.927, 336.500 669.917 C 329.350 665.835, 322.150 661.838, 320.500 661.034 C 318.850 660.230, 316.337 658.791, 314.915 657.836 C 313.493 656.880, 311.180 655.891, 309.775 655.636 C 306.908 655.116, 304.491 653.153, 291.832 641.069 C 286.974 636.432, 283 632.949, 283 633.330 M 497.409 783.500 C 497.408 792.850, 497.558 796.810, 497.743 792.299 C 497.928 787.789, 497.929 780.139, 497.745 775.299 C 497.562 770.460, 497.410 774.150, 497.409 783.500 M 404.768 779.725 C 406.565 779.947, 409.265 779.943, 410.768 779.715 C 412.271 779.486, 410.800 779.304, 407.500 779.310 C 404.200 779.315, 402.971 779.502, 404.768 779.725" stroke="none" fill="#69e1b7" fill-rule="evenodd"/><path d="M 498.441 334 C 498.441 349.675, 498.579 356.087, 498.748 348.250 C 498.917 340.412, 498.917 327.587, 498.748 319.750 C 498.579 311.912, 498.441 318.325, 498.441 334 M 384.320 371 C 384.320 374.575, 384.502 376.038, 384.723 374.250 C 384.945 372.462, 384.945 369.538, 384.723 367.750 C 384.502 365.962, 384.320 367.425, 384.320 371 M 522.750 483.737 C 525.638 483.939, 530.362 483.939, 533.250 483.737 C 536.138 483.535, 533.775 483.370, 528 483.370 C 522.225 483.370, 519.862 483.535, 522.750 483.737 M 592.477 552.250 L 584.500 560.500 592.750 552.523 C 600.412 545.115, 601.456 544, 600.727 544 C 600.576 544, 596.864 547.712, 592.477 552.250 M 436.550 559.845 C 437.072 560.309, 440.289 562.970, 443.698 565.758 C 448.373 569.582, 449.504 570.976, 448.304 571.437 C 447.430 571.772, 446.478 571.811, 446.190 571.524 C 445.902 571.236, 446.304 570.986, 447.083 570.968 C 448.079 570.946, 447.924 570.501, 446.559 569.468 C 444.060 567.578, 442.630 567.592, 443.362 569.500 C 443.678 570.325, 443.546 571, 443.067 571 C 442.588 571, 441.260 572.462, 440.115 574.250 C 438.970 576.038, 438.026 576.938, 438.017 576.250 C 438.008 575.563, 437.550 575, 437 575 C 436.450 575, 436 576.098, 436 577.441 C 436 580.958, 434.570 581.342, 431.335 578.691 C 426.372 574.624, 421 570.747, 421 571.231 C 421 571.489, 425.613 575.226, 431.250 579.535 C 448.655 592.839, 457.175 600.014, 465.745 608.583 C 470.279 613.117, 474.220 616.454, 474.501 615.999 C 474.782 615.543, 474.447 614.969, 473.756 614.722 C 473.065 614.476, 472.871 613.878, 473.325 613.395 C 473.786 612.904, 474.580 613.284, 475.125 614.258 C 476.488 616.695, 477.847 616.429, 479.200 613.461 C 479.860 612.013, 480.924 611.140, 481.678 611.430 C 482.405 611.709, 483 611.501, 483 610.969 C 483 610.436, 482.325 610, 481.500 610 C 479.192 610, 479.710 608.161, 482.854 605.194 C 487.643 600.674, 489.563 596.532, 488.228 593.601 C 487.278 591.515, 487.330 591.190, 488.543 591.655 C 489.344 591.962, 490 591.811, 490 591.318 C 490 590.225, 480.458 584.464, 477 583.470 C 468.871 581.133, 445.268 567.149, 440.076 561.594 C 438.742 560.167, 437.190 559, 436.626 559 C 435.985 559, 435.956 559.317, 436.550 559.845 M 335.280 589.736 C 337.909 589.943, 341.959 589.940, 344.280 589.731 C 346.601 589.521, 344.450 589.352, 339.500 589.355 C 334.550 589.358, 332.651 589.530, 335.280 589.736 M 556.047 607.026 C 552.721 610.890, 550 614.340, 550 614.692 C 550 615.045, 550.161 615.146, 550.358 614.917 C 559.180 604.649, 562.993 600, 562.594 600 C 562.319 600, 559.373 603.162, 556.047 607.026 M 593.578 605.960 C 589.294 608.138, 583.452 611.723, 580.597 613.925 C 573.269 619.579, 562.239 631.272, 556.475 639.500 C 548.498 650.885, 544.538 653.167, 539.223 649.443 C 536.380 647.453, 536.259 641.971, 538.904 635.011 C 539.951 632.256, 540.419 630.241, 539.944 630.535 C 539.469 630.828, 538.335 633.640, 537.424 636.784 C 535.380 643.832, 533.692 647.866, 534.484 643.806 C 534.937 641.487, 534.717 641.169, 532.903 641.519 C 531.744 641.742, 530.187 642.430, 529.442 643.048 C 528.697 643.666, 527.588 643.863, 526.976 643.485 C 526.326 643.084, 525.582 643.774, 525.183 645.149 C 524.711 646.773, 524.323 645.335, 523.927 640.500 C 523.611 636.650, 523.274 652.737, 523.177 676.250 C 523.079 699.763, 523.196 719, 523.435 719 C 523.674 719, 527.820 713.938, 532.648 707.750 C 542.107 695.627, 559.009 678.361, 570.415 669.168 C 587.288 655.569, 612.310 641.986, 637.088 632.975 C 644.325 630.343, 655.742 626.976, 680 620.322 C 688.442 618.006, 689.110 617.275, 683.460 616.541 C 670.075 614.802, 663.568 613.465, 653 610.285 C 628.664 602.962, 624.146 602.041, 612.434 602.020 C 601.504 602, 601.273 602.048, 593.578 605.960 M 266 618.512 C 266 618.742, 266.617 620.858, 267.371 623.215 C 268.125 625.572, 269.774 631.325, 271.034 636 C 274.099 647.364, 281.155 665.652, 285.637 673.849 C 295.006 690.985, 312.749 712.135, 324.124 719.729 C 346.646 734.765, 359.269 740.655, 379.500 745.568 C 388.793 747.825, 409.594 749.070, 419.395 747.956 C 427.729 747.009, 441.297 742.700, 460.723 734.831 C 468.640 731.624, 470.415 730.460, 467.750 730.222 C 467.063 730.160, 463.350 729.180, 459.500 728.043 C 455.650 726.905, 447.210 725.069, 440.744 723.963 C 406.107 718.034, 365.534 701.607, 338.555 682.587 C 326.386 674.009, 307.479 657.826, 289.500 640.601 C 284 635.332, 276.462 628.112, 272.750 624.557 C 269.038 621.002, 266 618.282, 266 618.512 M 755 618.896 C 755 619.831, 739.160 635.479, 730.500 643.100 C 727.750 645.520, 725.275 647.729, 725 648.009 C 724.725 648.288, 719.325 653.247, 713 659.028 C 672.350 696.181, 638.981 712.444, 577.637 724.997 C 566.982 727.178, 557.455 729.272, 556.468 729.651 C 555.137 730.161, 554.884 729.997, 555.490 729.015 C 556.035 728.134, 555.923 727.930, 555.155 728.405 C 553.594 729.369, 553.685 732, 555.278 732 C 555.982 732, 561.044 733.966, 566.528 736.369 C 572.013 738.773, 581 742.260, 586.500 744.119 L 596.500 747.500 616.500 747.468 C 635.134 747.437, 637.176 747.249, 646.391 744.709 C 665.289 739.502, 675.228 735.105, 690 725.418 C 719.936 705.788, 737.718 680.999, 750.464 641.128 C 752.333 635.283, 754.370 628.475, 754.991 626 C 755.611 623.525, 756.348 620.712, 756.627 619.750 C 756.906 618.788, 756.654 618, 756.067 618 C 755.480 618, 755 618.403, 755 618.896 M 441.500 700 C 444.766 703.300, 447.662 706, 447.937 706 C 448.212 706, 445.766 703.300, 442.500 700 C 439.234 696.700, 436.338 694, 436.063 694 C 435.788 694, 438.234 696.700, 441.500 700" stroke="none" fill="#1ea996" fill-rule="evenodd"/><path d="M 503.250 230.745 C 508.063 230.928, 515.938 230.928, 520.750 230.745 C 525.563 230.561, 521.625 230.411, 512 230.411 C 502.375 230.411, 498.438 230.561, 503.250 230.745 M 488.795 260.706 C 489.040 261.990, 488.742 263, 488.117 263 C 487.502 263, 487 263.610, 487 264.355 C 487 266.690, 476.603 275.666, 470.850 278.297 C 464.423 281.237, 450.770 284, 442.672 284 C 437.606 284, 437 284.221, 437 286.067 C 437 288.066, 440.115 292.861, 444.740 297.979 C 445.972 299.343, 448.784 304.068, 450.987 308.479 C 454.127 314.765, 455.244 318.455, 456.149 325.536 C 458.061 340.507, 455.497 347.003, 447.677 346.996 C 443.321 346.992, 437.123 344, 436.840 341.765 C 436.752 341.069, 436.640 336.675, 436.590 332 C 436.513 324.743, 436.074 322.631, 433.584 317.562 C 429.879 310.015, 418.638 298.565, 410.017 293.556 L 403.534 289.790 395.381 291.803 C 386.921 293.891, 372 300.443, 372 302.070 C 372 303.377, 373.756 303.233, 374.203 301.890 C 374.607 300.679, 384.807 300.512, 390.878 301.616 C 396.039 302.554, 402.771 305.801, 408.051 309.897 C 413.064 313.787, 419 321.093, 419 323.375 C 419 324.177, 419.495 324.998, 420.100 325.200 C 421.201 325.567, 421.674 332.660, 420.664 333.669 C 419.925 334.408, 409.260 329.432, 405.542 326.614 C 401.110 323.255, 390.515 319.837, 382.682 319.241 C 374.837 318.643, 355.736 320.741, 353.388 322.458 C 352.090 323.408, 353.023 323.843, 358.530 324.858 C 370.066 326.983, 379.715 333.142, 384.426 341.387 C 387.759 347.219, 388.258 351.643, 386.517 359.917 C 384.588 369.089, 384.601 374.672, 386.570 382.269 C 389.566 393.831, 398.969 409.098, 408.794 418.351 L 411.821 421.203 413.625 418.351 C 428.533 394.792, 448.377 378.142, 472.507 368.946 C 476.640 367.371, 494.579 363.071, 497.250 363.016 C 498.178 362.996, 498.109 270.213, 497.176 264 C 496.520 259.636, 496.377 259.484, 492.428 258.956 C 488.605 258.446, 488.383 258.553, 488.795 260.706 M 524.667 258.667 C 524.300 259.033, 524 282.172, 524 310.085 L 524 360.837 530.250 362.803 C 533.688 363.884, 540.064 365.754, 544.421 366.959 C 561.823 371.771, 583.624 385.635, 595.274 399.297 C 600.843 405.828, 609 417.945, 609 419.686 C 609 422.154, 610.719 421, 616.027 414.970 C 624.207 405.675, 626.839 401.723, 630.548 393.164 C 635.588 381.534, 636.702 372.335, 634.492 360.593 C 632.439 349.687, 632.887 346.023, 637.043 339.748 C 641.813 332.547, 650.600 327.269, 662.500 324.458 C 665.278 323.802, 664.946 323.575, 658 321.394 C 652.427 319.643, 648.133 319.033, 641.288 319.019 C 630.451 318.997, 624.317 320.909, 615.573 327.034 C 600.509 337.586, 596.171 335.346, 604.419 321.273 C 608.800 313.798, 612.974 310.078, 621.699 305.873 C 627.396 303.128, 630.013 302.507, 637.823 302.048 C 642.951 301.746, 647.901 301.867, 648.823 302.315 C 649.906 302.841, 649.792 302.553, 648.500 301.500 C 644.924 298.585, 632.666 293.244, 625.576 291.512 C 618.726 289.837, 618.603 289.844, 614.076 292.078 C 603.246 297.423, 593.520 307.063, 587.922 318 C 586.124 321.512, 585.526 324.623, 585.196 332.171 C 584.807 341.077, 584.562 342.045, 582.101 344.404 C 576.561 349.711, 568.497 347.826, 565.440 340.510 C 560.711 329.193, 567.987 305.796, 580.069 293.469 C 584.199 289.255, 584.976 287.874, 584.850 284.969 C 584.718 281.918, 584.650 281.833, 584.282 284.267 C 584.052 285.789, 583.419 286.759, 582.875 286.423 C 582.331 286.086, 580.899 285.673, 579.693 285.503 C 569.831 284.118, 554.362 280.260, 549.063 277.865 C 542.101 274.719, 535.586 268.991, 531.302 262.250 C 528.819 258.343, 526.333 257, 524.667 258.667 M 657 349.728 C 655.739 351.330, 655.062 353.290, 655.357 354.478 C 655.634 355.590, 656.331 358.300, 656.907 360.500 C 658.658 367.200, 658.206 380.208, 655.924 388.739 C 653.474 397.901, 646.685 411.884, 640.436 420.641 C 637.983 424.080, 632.380 430.691, 627.987 435.333 L 619.998 443.772 621.999 453.496 C 623.100 458.844, 624 464.296, 624 465.610 C 624 466.925, 624.285 468, 624.634 468 C 624.983 468, 630.467 464.096, 636.819 459.324 C 662.427 440.090, 680.419 435.058, 700.691 441.462 C 709.336 444.193, 716.706 449.170, 720.002 454.503 C 723.580 460.293, 722.210 467.806, 717.093 470.452 C 711.443 473.374, 707.789 472.345, 700.615 465.816 C 694.780 460.504, 684.708 458.778, 675.392 461.492 L 669.500 463.209 675.323 466.157 C 683.836 470.468, 690.232 477.671, 694.208 487.425 C 697.146 494.631, 697.497 496.522, 697.471 505 C 697.445 513.510, 697.118 515.190, 694.333 521.123 C 692.623 524.766, 689.598 529.546, 687.612 531.745 C 685.625 533.943, 684 536.012, 684 536.342 C 684 536.671, 685.108 539.363, 686.462 542.323 C 687.816 545.283, 689.345 549.580, 689.860 551.872 C 691.012 556.999, 690.520 557.342, 678.843 559.544 C 674.254 560.410, 669.694 561.557, 668.709 562.093 C 667.724 562.629, 666.492 562.804, 665.970 562.482 C 665.449 562.159, 663.438 562.647, 661.502 563.566 L 657.983 565.236 659.991 568.486 C 661.096 570.274, 662 573.312, 662 575.239 C 662 578.714, 661.958 578.748, 656.750 579.406 C 653.862 579.771, 650.038 580.329, 648.250 580.646 C 646.187 581.012, 645 580.817, 645 580.111 C 645 579.500, 645.675 579, 646.500 579 C 647.325 579, 648 578.605, 648 578.122 C 648 577.640, 647.325 576.685, 646.500 576 C 644.319 574.190, 644.662 572.749, 646.977 573.988 C 648.527 574.817, 648.843 574.753, 648.436 573.694 C 648.143 572.930, 648.913 571.863, 650.209 571.239 C 652.224 570.268, 652.269 570.127, 650.583 570.068 C 649.529 570.030, 648.914 569.753, 649.215 569.451 C 649.517 569.150, 650.985 569.209, 652.477 569.584 C 654.092 569.989, 654.731 570.548, 654.056 570.966 C 653.432 571.351, 654.307 571.667, 656 571.667 C 657.693 571.667, 658.563 571.348, 657.933 570.958 C 657.096 570.441, 657.087 570.064, 657.901 569.561 C 659.872 568.343, 656.313 565.768, 653.753 566.560 C 649.001 568.029, 643.757 571.238, 639.744 575.132 C 636.070 578.698, 635.778 579.296, 637.294 580.145 C 638.241 580.675, 639.513 580.801, 640.120 580.426 C 640.727 580.051, 641.511 580.191, 641.862 580.737 C 642.547 581.804, 659.588 585.812, 667 586.650 C 681.729 588.316, 703.652 587.864, 702.450 585.919 C 702.138 585.414, 703.146 585, 704.691 584.999 C 712.429 584.998, 728.887 576.041, 735.422 568.275 C 737.394 565.932, 737.543 565.297, 736.379 564.210 C 734.767 562.704, 734.566 561, 736 561 C 736.550 561, 737 561.675, 737 562.500 C 737 566.671, 741.832 561.383, 746.455 552.151 C 747.929 549.209, 749.779 543.431, 750.567 539.313 C 753.998 521.384, 751.099 509.511, 739.671 494.686 L 736.731 490.873 739.674 487.686 C 749.373 477.187, 752.327 470.050, 752.375 457 C 752.434 441.152, 746.977 428.680, 736 419.570 C 728.573 413.406, 722.442 410.623, 715.288 410.167 C 708.304 409.723, 707.540 410.119, 697.526 419.389 C 691.899 424.597, 687.368 426.479, 682.610 425.587 C 675.547 424.262, 671.596 416.296, 674.524 409.287 C 675.394 407.204, 677.141 404.375, 678.406 403 C 685.515 395.272, 691.606 380.857, 689.069 377.765 C 688.498 377.069, 686.901 375.088, 685.520 373.362 C 682.850 370.023, 672.291 364.320, 663.868 361.667 C 662.337 361.185, 660.145 354.577, 659.742 349.228 C 659.533 346.450, 659.585 346.440, 657 349.728 M 446 350.094 C 446 350.592, 445.361 351, 444.580 351 C 443.799 351, 439.567 353.475, 435.175 356.500 C 430.784 359.525, 426.755 362, 426.223 362 C 425.690 362, 423.099 362.954, 420.464 364.119 C 416.143 366.030, 415.861 366.349, 417.587 367.369 C 418.639 367.991, 422.912 368.488, 427.081 368.474 C 433.944 368.451, 435.207 368.119, 440.402 364.974 C 443.558 363.063, 447.009 360.097, 448.070 358.382 C 450.630 354.245, 450.599 350.390, 448 349.710 C 446.900 349.423, 446 349.595, 446 350.094 M 572.250 350.737 C 569.507 351.679, 571.121 355.686, 576.250 360.670 C 583.599 367.811, 585.151 368.448, 594.858 368.305 C 605.264 368.153, 606.956 366.870, 599.826 364.538 C 596.910 363.584, 590.919 360.314, 586.512 357.271 C 578.477 351.722, 574.580 349.937, 572.250 350.737 M 359.036 358.960 C 356.304 362.043, 353.480 364.175, 351.571 364.593 C 347.024 365.591, 337.957 370.913, 334.259 374.755 C 331.133 378.004, 331.054 378.287, 332.033 382.811 C 333.710 390.569, 338.036 399.024, 342.853 403.960 C 345.092 406.255, 347 411.596, 347 415.568 C 347 420.817, 341.703 426.002, 336.350 425.994 C 331.599 425.986, 327.408 423.882, 324.056 419.821 C 322.650 418.118, 319.523 415.211, 317.106 413.362 C 311.127 408.787, 306.297 408.816, 296.319 413.489 C 292.221 415.408, 289.146 417.428, 289.486 417.978 C 289.830 418.533, 289.482 418.739, 288.705 418.440 C 286.858 417.732, 276.894 428.515, 274.172 434.168 C 268.746 445.434, 267.423 461.104, 271.015 471.544 C 272.154 474.854, 275.454 480.566, 278.602 484.676 L 284.174 491.951 280.337 496.725 C 278.227 499.351, 276.225 501.725, 275.890 502 C 274.618 503.041, 272.247 508.684, 271.086 513.432 C 269.417 520.255, 269.646 536.290, 271.513 543.422 C 272.366 546.679, 274.724 552.079, 276.753 555.422 C 280.766 562.035, 291.084 572.838, 297.669 577.321 C 302.483 580.599, 315.817 586.231, 317.013 585.492 C 317.462 585.214, 317.980 585.422, 318.165 585.953 C 318.953 588.222, 343.399 589.244, 355 587.492 C 365.314 585.934, 381.388 582.025, 381.798 580.975 C 381.962 580.556, 382.924 580.429, 383.935 580.693 C 386.829 581.450, 387.372 579.172, 384.818 576.987 C 378.113 571.251, 376.387 570.124, 371.173 568.077 C 368.053 566.852, 363.402 564.925, 360.837 563.795 C 357.766 562.441, 355.262 561.968, 353.503 562.410 C 351.761 562.847, 351.056 562.718, 351.475 562.040 C 351.829 561.468, 351.864 561, 351.552 561 C 349.573 561, 330.579 557.858, 329.855 557.411 C 329.367 557.109, 329.298 556.330, 329.702 555.681 C 330.351 554.638, 332.761 548.187, 336.193 538.304 C 337.213 535.366, 337.036 534.804, 333.989 531.335 C 328.467 525.045, 324.819 515.702, 324.292 506.500 C 323.886 499.393, 324.179 497.562, 326.918 490.093 C 331.441 477.765, 336.571 471.513, 346.372 466.390 C 349.193 464.915, 350.871 463.471, 350.359 462.959 C 349.873 462.473, 346.331 461.540, 342.488 460.885 C 333.039 459.276, 326.678 461.114, 318.232 467.892 C 309.921 474.562, 308.639 474.867, 304.155 471.240 C 289.904 459.715, 310.966 439, 336.935 439 C 354.369 439, 376.721 449.901, 393.283 466.480 C 395.364 468.562, 397.196 470.094, 397.355 469.883 C 397.514 469.672, 398.221 465.225, 398.927 460 C 399.633 454.775, 400.787 448.806, 401.493 446.736 L 402.776 442.972 393.500 433.736 C 382.430 422.713, 378.420 417.105, 371.979 403.637 C 365.535 390.164, 362.639 376.606, 364.047 366.500 C 364.584 362.650, 365.229 358.938, 365.480 358.250 C 366.009 356.803, 365.104 354, 364.108 354 C 363.735 354, 361.452 356.232, 359.036 358.960 M 245.349 462 C 245.349 466.675, 245.522 468.587, 245.732 466.250 C 245.943 463.913, 245.943 460.087, 245.732 457.750 C 245.522 455.413, 245.349 457.325, 245.349 462 M 523.750 469.740 C 527.188 469.936, 532.813 469.936, 536.250 469.740 C 539.688 469.545, 536.875 469.385, 530 469.385 C 523.125 469.385, 520.313 469.545, 523.750 469.740 M 420.343 477.500 C 420.346 481.900, 420.522 483.576, 420.733 481.224 C 420.945 478.872, 420.942 475.272, 420.727 473.224 C 420.512 471.176, 420.339 473.100, 420.343 477.500 M 367.500 491.205 C 362.575 492.924, 354.321 499.661, 349.796 505.654 L 345.555 511.272 344.322 508.386 C 343.430 506.296, 343.078 506.025, 343.045 507.402 C 342.954 511.241, 351.563 520.175, 360.915 525.949 C 362.246 526.770, 362.358 528.531, 361.679 538 C 361.546 539.861, 361.964 540.462, 363.317 540.350 C 364.316 540.268, 364.866 540.467, 364.540 540.793 C 364.214 541.119, 366.227 541.970, 369.014 542.683 C 373.837 543.917, 376.690 545.099, 390.500 551.583 C 393.800 553.132, 397.058 554.361, 397.739 554.313 C 398.421 554.265, 398.684 554.701, 398.325 555.283 C 397.903 555.966, 398.338 556.084, 399.555 555.617 C 400.591 555.220, 401.118 555.215, 400.726 555.607 C 399.707 556.627, 403.781 559.253, 405.109 558.433 C 405.877 557.958, 405.801 557.489, 404.857 556.890 C 403.776 556.205, 403.766 556.028, 404.809 556.015 C 405.529 556.007, 405.833 555.538, 405.484 554.974 C 405.135 554.410, 406.234 553.466, 407.925 552.876 C 411.248 551.718, 411.893 550.280, 409.500 549.362 C 408.675 549.045, 408.014 548.047, 408.032 547.143 C 408.059 545.743, 408.279 545.785, 409.521 547.427 C 411.088 549.498, 411.684 549.255, 413.399 545.847 C 414.747 543.167, 417.638 541.894, 416.675 544.404 C 416.155 545.761, 416.363 545.896, 417.765 545.112 C 419.019 544.410, 420.048 544.606, 421.482 545.821 C 423.373 547.422, 423.398 547.413, 422.022 545.643 C 421.228 544.622, 420.111 543.007, 419.539 542.054 C 418.968 541.100, 416.290 536.986, 413.590 532.910 C 410.889 528.835, 407.585 523.025, 406.246 520 C 404.908 516.975, 402.955 512.612, 401.907 510.305 C 400.858 507.998, 399.996 505.523, 399.990 504.805 C 399.972 502.319, 395.273 493.491, 392.909 491.500 C 391.134 490.005, 390.876 489.942, 391.890 491.250 C 393.500 493.330, 393.344 493.335, 385 491.500 C 377.421 489.833, 371.707 489.737, 367.500 491.205 M 633.141 492.022 C 628.018 494.347, 627.679 494.400, 628.515 492.750 C 628.863 492.063, 628.498 492.295, 627.702 493.266 C 626.907 494.237, 625.010 498.512, 623.488 502.766 C 621.965 507.020, 619.668 512.853, 618.383 515.729 C 617.098 518.605, 616.303 521.755, 616.618 522.729 C 617.037 524.030, 616.938 524.150, 616.244 523.183 C 615.534 522.193, 614.958 522.691, 613.931 525.183 C 613.179 527.007, 610.920 530.973, 608.911 533.997 C 605.540 539.071, 605.393 539.587, 607 540.712 C 608.323 541.639, 608.775 543.501, 608.882 548.466 C 608.966 552.300, 608.606 555, 608.012 555 C 607.455 555, 607 555.863, 607 556.918 C 607 560.132, 605.921 561.907, 604.337 561.299 C 603.514 560.983, 603.993 561.969, 605.402 563.489 C 607.960 566.249, 607.969 566.250, 610.616 564.377 C 612.074 563.345, 615.059 561.321, 617.248 559.880 C 619.778 558.214, 620.806 556.998, 620.070 556.544 C 619.434 556.150, 618.257 556.372, 617.456 557.036 C 616.655 557.701, 616 557.941, 616 557.569 C 616 556.359, 621.472 550, 622.500 550.015 C 623.050 550.024, 622.825 550.474, 622 551.015 C 620.667 551.891, 620.667 552.122, 622 553.094 C 623.270 554.021, 623.232 554.102, 621.750 553.626 C 620.665 553.277, 620 553.580, 620 554.424 C 620 556.843, 622.677 556.904, 626.131 554.564 C 627.984 553.309, 630.572 551.945, 631.882 551.532 C 633.774 550.936, 633.980 550.579, 632.882 549.796 C 631.808 549.031, 631.890 548.937, 633.248 549.373 C 634.209 549.682, 636.459 549.077, 638.248 548.029 C 640.036 546.980, 644.875 544.881, 649 543.363 C 653.125 541.846, 657.059 540.054, 657.743 539.381 C 658.601 538.536, 658.800 536.352, 658.386 532.329 L 657.787 526.500 665.922 521.154 C 674.213 515.705, 678.687 510.003, 677.675 506.175 C 677.357 504.973, 677.199 505.118, 677.116 506.691 C 676.864 511.445, 673.285 510.631, 670.185 505.116 C 667.093 499.614, 658.903 492.344, 654.382 491.089 C 648.092 489.343, 638.076 489.783, 633.141 492.022 M 780.349 520 C 780.349 524.675, 780.522 526.587, 780.732 524.250 C 780.943 521.913, 780.943 518.087, 780.732 515.750 C 780.522 513.413, 780.349 515.325, 780.349 520 M 610.306 534.644 C 609.650 534.911, 609.389 535.849, 609.726 536.729 C 610.109 537.727, 609.935 538.078, 609.263 537.663 C 608.557 537.226, 608.399 537.772, 608.803 539.249 C 609.308 541.094, 609.485 541.182, 609.785 539.738 C 609.987 538.769, 610.567 538.233, 611.076 538.547 C 611.584 538.861, 612 537.966, 612 536.559 C 612 535.152, 611.888 534.036, 611.750 534.079 C 611.612 534.122, 610.963 534.376, 610.306 534.644 M 410.031 537.500 C 410.031 538.050, 410.450 539.162, 410.962 539.972 C 411.755 541.227, 411.993 541.182, 412.574 539.668 C 413.205 538.024, 413.432 538.057, 415.628 540.120 C 416.933 541.346, 417.986 541.933, 417.969 541.424 C 417.911 539.734, 413.181 536.898, 412.435 538.105 C 411.957 538.879, 411.491 538.804, 410.890 537.857 C 410.417 537.111, 410.031 536.950, 410.031 537.500 M 602.579 542.912 C 601.628 543.964, 600.742 545.551, 600.612 546.440 C 600.481 547.328, 599.953 548.058, 599.437 548.061 C 598.160 548.070, 589 557.174, 589 558.435 C 589 558.990, 589.691 558.458, 590.536 557.252 C 591.380 556.047, 593.672 554.300, 595.629 553.372 C 598.659 551.934, 599.335 551.892, 600.188 553.092 C 600.957 554.174, 601.046 554.061, 600.570 552.605 C 600.208 551.496, 600.624 549.968, 601.574 548.918 C 602.466 547.933, 602.900 546.648, 602.539 546.063 C 602.178 545.478, 602.306 545, 602.824 545 C 603.343 545, 604.002 544.100, 604.290 543 C 604.937 540.523, 604.750 540.514, 602.579 542.912 M 628 547.895 C 626.625 548.277, 625.493 549.020, 625.485 549.545 C 625.476 550.070, 625.112 551.063, 624.676 551.750 C 624.239 552.438, 624.303 553, 624.819 553 C 626.175 553, 628.100 550.433, 627.325 549.658 C 626.963 549.296, 627.642 549, 628.833 549 C 630.025 549, 631 548.550, 631 548 C 631 547.450, 630.888 547.045, 630.750 547.100 C 630.612 547.155, 629.375 547.512, 628 547.895 M 580 564.595 C 574.436 569.016, 574.451 569, 575.645 569 C 576.183 569, 577.495 568.205, 578.561 567.234 C 579.628 566.263, 581.798 564.463, 583.385 563.234 C 584.972 562.005, 585.872 561.004, 585.385 561.010 C 584.898 561.015, 582.475 562.628, 580 564.595 M 688.010 561.973 C 686.641 562.310, 685.966 562.844, 686.510 563.160 C 688.124 564.097, 693.918 563.941, 694.535 562.944 C 694.848 562.437, 694.360 562.308, 693.451 562.657 C 692.542 563.006, 691.506 562.857, 691.149 562.326 C 690.792 561.795, 689.380 561.636, 688.010 561.973 M 603.356 564.547 C 603.813 565.987, 603.193 567.025, 600.991 568.500 C 599.349 569.600, 598.004 570.954, 598.003 571.509 C 598.001 572.065, 597.056 573.108, 595.903 573.829 C 594.749 574.549, 594.036 575.369, 594.317 575.650 C 594.849 576.183, 606.016 567.459, 606.051 566.483 C 606.062 566.178, 605.321 565.178, 604.404 564.261 C 602.847 562.704, 602.777 562.723, 603.356 564.547 M 715.250 569.706 C 713.653 570.013, 713 570.844, 713 572.570 C 713 573.906, 713.563 575.030, 714.250 575.068 C 715.853 575.154, 712.329 576.679, 708.750 577.448 C 705.860 578.068, 704.877 581, 707.559 581 C 708.416 581, 708.840 581.450, 708.500 582 C 708.160 582.550, 708.310 583, 708.834 583 C 709.358 583, 710.056 582.296, 710.386 581.437 C 710.716 580.577, 711.439 580.153, 711.993 580.496 C 712.547 580.838, 713 580.611, 713 579.992 C 713 579.325, 713.918 579.093, 715.250 579.423 C 716.487 579.730, 716.938 579.723, 716.250 579.407 C 715.563 579.092, 715 578.421, 715 577.917 C 715 577.413, 715.563 576.986, 716.250 576.968 C 716.938 576.951, 718.400 576.219, 719.500 575.343 C 721.473 573.771, 721.470 573.757, 719.250 574.281 C 718.013 574.574, 717 574.405, 717 573.906 C 717 573.408, 718.125 573, 719.500 573 C 721.333 573, 722 572.467, 722 571 C 722 568.965, 720.544 568.686, 715.250 569.706 M 669.385 573.765 C 668.771 574.169, 667.954 575.512, 667.568 576.749 C 667.017 578.513, 666.491 578.798, 665.126 578.068 C 663.724 577.317, 663.172 577.705, 662.280 580.068 C 661.325 582.600, 661.407 583, 662.887 583 C 663.829 583, 665.028 583.394, 665.550 583.876 C 666.072 584.357, 668.975 585.016, 672 585.340 C 675.204 585.683, 676.665 585.588, 675.500 585.113 C 674.218 584.590, 675.596 584.395, 679.337 584.570 C 682.548 584.719, 685.436 585.102, 685.754 585.421 C 686.860 586.527, 691.142 586.039, 690.431 584.888 C 689.369 583.170, 692.210 581.911, 693.442 583.553 C 694.185 584.542, 694.947 584.670, 696 583.981 C 697.317 583.120, 697.321 582.885, 696.028 582.054 C 694.431 581.027, 694.927 580.686, 699.500 579.675 C 700.600 579.431, 698.013 579.180, 693.750 579.116 C 687.676 579.025, 686 579.306, 686 580.417 C 686 581.196, 686.563 582.039, 687.250 582.290 C 687.938 582.541, 687.320 582.691, 685.878 582.623 C 684.190 582.544, 683.430 582.044, 683.746 581.220 C 684.301 579.772, 680.400 576, 678.347 576 C 677.606 576, 677 575.325, 677 574.500 C 677 572.902, 671.501 572.371, 669.385 573.765 M 217.385 601 C 217.385 607.875, 217.545 610.688, 217.740 607.250 C 217.936 603.813, 217.936 598.188, 217.740 594.750 C 217.545 591.313, 217.385 594.125, 217.385 601 M 805.343 604.500 C 805.346 608.900, 805.522 610.576, 805.733 608.224 C 805.945 605.872, 805.942 602.272, 805.727 600.224 C 805.512 598.176, 805.339 600.100, 805.343 604.500 M 266 616.356 C 266 616.804, 297.836 646.965, 303.977 652.336 C 305.761 653.896, 308.370 655.381, 309.775 655.636 C 311.180 655.891, 313.493 656.880, 314.915 657.836 C 316.337 658.791, 318.850 660.230, 320.500 661.034 C 322.150 661.838, 329.350 665.835, 336.500 669.917 C 355.787 680.927, 388.845 697.960, 404.500 704.952 C 408.350 706.672, 412.625 708.677, 414 709.408 C 415.375 710.138, 420.325 711.978, 425 713.495 C 429.675 715.012, 435.930 717.346, 438.900 718.682 C 441.870 720.017, 445.582 721.366, 447.150 721.680 C 448.717 721.993, 450 722.591, 450 723.008 C 450 723.426, 451.012 723.986, 452.250 724.255 C 453.488 724.523, 455.361 725.102, 456.414 725.541 C 457.692 726.075, 458.107 725.982, 457.663 725.263 C 457.240 724.579, 457.723 724.376, 458.987 724.707 C 460.082 724.993, 460.731 725.626, 460.430 726.114 C 460.128 726.601, 460.719 727, 461.741 727 C 462.763 727, 464.140 727.540, 464.800 728.200 C 465.642 729.042, 466 729.065, 466 728.277 C 466 726.508, 460.921 720.931, 459.891 721.568 C 458.925 722.165, 453.028 718.885, 450.473 716.331 C 449.663 715.520, 449 715.217, 449 715.658 C 449 716.098, 447.988 715.447, 446.750 714.212 C 444.674 712.139, 425.648 697.416, 420.665 694.027 C 419.474 693.217, 416.177 690.870, 413.338 688.811 C 407.333 684.456, 384.220 672.442, 375.500 669.143 C 357.988 662.518, 343.978 658.131, 323.500 652.859 C 318.773 651.642, 318.087 651.365, 306.853 646.118 C 298.108 642.034, 284.659 634.030, 286.500 634.006 C 287.050 633.998, 286.150 633.167, 284.500 632.158 C 282.850 631.150, 280.825 629.492, 280 628.475 C 278.641 626.799, 278.664 626.687, 280.250 627.281 C 282.802 628.238, 282.393 627.486, 279.250 625.440 C 276.857 623.883, 276.678 623.868, 277.872 625.325 C 278.627 626.246, 278.795 627, 278.245 627 C 277.092 627, 275.091 624.821, 275.335 623.831 C 275.426 623.463, 273.363 621.530, 270.750 619.535 C 268.137 617.540, 266 616.110, 266 616.356 M 752.395 619.084 C 750.261 620.779, 748.236 622.618, 747.896 623.169 C 747.555 623.720, 746.984 624.123, 746.628 624.065 C 745.781 623.927, 740 626.918, 740 627.494 C 740 627.738, 740.727 627.658, 741.616 627.317 C 743.032 626.774, 743.074 626.994, 741.953 629.098 C 740.369 632.072, 739.460 632.781, 729.461 638.851 C 717.729 645.972, 701.980 652.025, 683.500 656.516 C 679.650 657.452, 674.925 658.786, 673 659.481 C 671.075 660.175, 665.675 661.989, 661 663.510 C 651.953 666.454, 650.685 666.950, 639 672.117 C 631.809 675.296, 628.845 676.897, 615.500 684.809 C 608.944 688.696, 592.613 700.583, 587.020 705.540 C 585.084 707.255, 581.250 710.168, 578.500 712.013 C 575.750 713.858, 573.275 715.627, 573 715.943 C 571.891 717.219, 563.406 722.431, 562.093 722.642 C 560.165 722.953, 556.454 726.788, 557.282 727.615 C 557.951 728.284, 570.603 724.443, 572.500 722.994 C 573.050 722.574, 575.075 721.899, 577 721.493 C 578.925 721.088, 582.170 719.911, 584.210 718.878 C 586.251 717.845, 588.933 717, 590.171 717 C 591.410 717, 596.040 715.217, 600.461 713.038 C 604.883 710.859, 611.200 707.998, 614.500 706.681 C 629.440 700.715, 668.720 681.223, 680.977 673.693 C 684.565 671.489, 689.975 668.342, 693 666.699 C 696.025 665.056, 699.042 663.289, 699.704 662.772 C 700.367 662.254, 702.392 661.046, 704.204 660.086 C 719.340 652.072, 723.983 648.461, 744 629.134 C 757.282 616.310, 760.039 613.008, 752.395 619.084 M 747.971 722.750 L 741.500 729.500 748.250 723.029 C 751.962 719.470, 755 716.432, 755 716.279 C 755 715.543, 753.982 716.480, 747.971 722.750 M 523.423 780.500 C 523.424 792.050, 523.570 796.638, 523.747 790.696 C 523.924 784.753, 523.923 775.303, 523.745 769.696 C 523.567 764.088, 523.422 768.950, 523.423 780.500" stroke="none" fill="#a3f8d7" fill-rule="evenodd"/><path d="M 485 232.568 C 483.625 232.794, 478.675 233.485, 474 234.103 C 456.620 236.400, 437.645 244.337, 422.993 255.438 C 416.570 260.304, 415.518 260.750, 409.234 261.277 C 389.815 262.905, 365.085 273.379, 347.123 287.582 C 337.932 294.849, 326.614 307.400, 320.269 317.360 C 317.767 321.287, 312.923 328.789, 309.505 334.032 C 295.395 355.675, 289 372.089, 289 386.661 C 289 392.798, 288.701 394.173, 287.250 394.708 C 282.497 396.460, 271.348 404.899, 266.091 410.723 C 259.674 417.833, 253.101 429.043, 249.804 438.500 C 246.646 447.555, 246.127 470.827, 248.867 480.459 C 250.320 485.565, 250.574 487.927, 249.821 489.334 C 249.257 490.388, 247.662 494.456, 246.276 498.375 C 244.105 504.514, 243.723 507.465, 243.513 519.700 L 243.270 533.900 239.289 538.700 C 230.503 549.292, 223.169 564.732, 219.908 579.500 C 218.227 587.109, 218.214 616.143, 219.886 625 C 221.265 632.299, 227.303 652.651, 229.676 658 C 245.856 694.458, 272.222 725.071, 306.591 747.304 C 336.643 766.744, 375.656 779.045, 407 778.961 C 425.991 778.910, 442.264 774.888, 465.428 764.521 C 481.482 757.335, 485.629 756.013, 492.143 756.006 C 495.458 756.002, 496.960 756.452, 497.393 757.582 C 497.727 758.452, 498 768.141, 498 779.114 C 498 803.786, 499.174 807.573, 507.534 809.882 C 512.614 811.285, 517.669 809.591, 520.048 805.689 C 521.808 802.802, 521.993 800.538, 521.996 781.815 C 522 761.117, 522.555 756.769, 525.328 755.704 C 527.936 754.704, 539.162 757.694, 551 762.543 C 569.865 770.270, 572.087 771.095, 582 774.062 C 604.626 780.834, 626.492 780.662, 655.135 773.487 C 699.886 762.276, 741.674 734.489, 769.411 697.500 C 782.764 679.694, 790.713 664.989, 797.141 646.208 C 802.071 631.803, 803.992 619.826, 803.992 603.500 C 803.992 576.433, 798.660 559.302, 784.120 539.648 L 779.051 532.795 779.058 518.648 C 779.065 504.488, 778.468 500.865, 774.556 491.326 C 772.920 487.338, 772.934 486.693, 774.872 476.826 C 777.644 462.714, 777.090 454.057, 772.421 438.500 C 767.301 421.438, 754.695 405.302, 739.702 396.618 L 733 392.736 733 386.005 C 733 373.169, 728.685 359.061, 720.837 346.235 C 712.071 331.909, 695.846 308.124, 691.338 302.991 C 680.675 290.848, 668.644 281.639, 653.224 273.818 C 639.229 266.720, 628.798 263.336, 616.151 261.792 C 606.638 260.630, 606.393 260.532, 599 254.925 C 590.131 248.199, 578.580 242.216, 567.491 238.605 C 551.131 233.277, 547.368 232.825, 516.500 232.480 C 500.550 232.302, 486.375 232.342, 485 232.568 M 524.191 258.270 C 523.272 259.377, 523.044 272.049, 523.241 310.989 L 523.500 362.251 532 364.457 C 551.829 369.601, 564.409 375.261, 578.203 385.242 C 586.902 391.536, 599.627 405.182, 604.029 412.936 C 610.075 423.586, 609.199 423.339, 615.932 416.297 C 632.752 398.702, 640.456 376.711, 635.511 360.409 C 631.386 346.811, 637.083 336.217, 652.652 328.535 C 657.604 326.092, 659.765 325.638, 666.750 325.575 C 671.287 325.534, 674.995 325.275, 674.989 325 C 674.963 323.770, 666.998 314.760, 662 310.308 C 651.528 300.978, 637.900 293.491, 625.650 290.339 C 618.583 288.520, 616.626 288.942, 608.577 294.025 C 599.720 299.619, 591.659 308.463, 587.493 317.155 C 584.328 323.759, 584 325.261, 584 333.149 C 584 341.363, 583.851 341.972, 581.365 343.927 C 572.888 350.595, 562.560 341.232, 564.499 328.637 C 565.336 323.206, 568.762 312.525, 571.279 307.500 C 573.506 303.056, 580.598 293.540, 583.878 290.595 C 588.182 286.731, 585.847 278.574, 578.778 272.781 C 568.173 264.092, 553.045 258.764, 535.450 257.522 C 527.240 256.943, 525.179 257.080, 524.191 258.270 M 472.868 259.539 C 460.948 261.396, 447.173 267.969, 440.701 274.889 C 436.432 279.453, 436 280.361, 436 284.783 C 436 288.767, 436.480 290.092, 438.642 292.076 C 440.095 293.409, 443.476 297.829, 446.155 301.898 C 452.419 311.413, 456 322.782, 456 333.156 C 456 339.877, 455.718 341.013, 453.434 343.477 C 451.166 345.924, 450.341 346.186, 446.322 345.733 C 438.961 344.903, 437.500 342.665, 437.500 332.221 C 437.500 324.813, 437.089 322.623, 434.771 317.674 C 431.235 310.128, 420.656 299.174, 411.228 293.298 L 403.935 288.753 397.767 289.966 C 390.255 291.444, 374.110 298.432, 368.080 302.816 C 362.072 307.183, 345.020 323.247, 345.009 324.550 C 345.003 325.200, 348.186 325.600, 353.373 325.600 C 360.836 325.600, 362.479 325.961, 368.496 328.923 C 376.486 332.857, 381.757 337.825, 384.792 344.281 C 387.423 349.878, 387.546 353.315, 385.381 360.761 C 380.657 377.012, 388.226 397.499, 406.272 417.307 L 411.562 423.114 417.531 414.309 C 428.772 397.726, 442.945 384.850, 460 375.726 C 469.493 370.647, 485.082 365.360, 493.476 364.374 L 499 363.725 498.986 313.112 C 498.979 285.276, 498.701 261.488, 498.370 260.250 C 497.804 258.140, 497.262 258.006, 489.633 258.097 C 485.160 258.150, 477.616 258.799, 472.868 259.539 M 345.261 346.515 C 333.801 352.318, 329.277 361.373, 330.211 376.641 C 330.739 385.281, 334.431 394.944, 339.829 401.813 C 347.961 412.162, 347.912 420.040, 339.689 424.468 C 336.626 426.118, 335.832 426.179, 332.861 424.998 C 331.013 424.263, 326.548 420.853, 322.940 417.421 C 315.141 410, 310.319 408.179, 303.212 409.968 C 294.724 412.106, 285.196 418.075, 279.326 424.933 C 276.092 428.710, 271.019 437.984, 269.523 442.854 C 266.659 452.172, 267.400 467.886, 271.048 475.179 C 272.237 477.556, 275.187 482.049, 277.605 485.166 C 280.022 488.282, 282 491.363, 282 492.012 C 282 492.662, 280.241 495.191, 278.092 497.633 C 267.177 510.033, 264.969 532.948, 272.985 550.627 C 280.886 568.053, 296.499 581.242, 316 586.963 C 327.520 590.343, 344.511 590.789, 358.500 588.080 C 376.195 584.653, 387.165 581.733, 387.713 580.305 C 388.393 578.532, 386.590 576.499, 380.058 571.673 C 373.029 566.481, 355.749 560.358, 342.555 558.386 C 337.056 557.563, 332.342 556.676, 332.080 556.413 C 331.413 555.746, 333.683 547.594, 336.432 540.785 L 338.739 535.070 335.335 531.285 C 323.876 518.545, 322.074 500.335, 330.644 483.905 C 334.684 476.161, 338.475 472.242, 346.998 467.001 L 353.229 463.170 349.998 461.499 C 348.221 460.580, 343.504 459.581, 339.517 459.280 C 333.225 458.804, 331.555 459.058, 326.883 461.198 C 323.922 462.555, 319.335 465.541, 316.689 467.833 C 314.043 470.125, 311.343 472.052, 310.689 472.115 C 304.967 472.669, 301 468.895, 301 462.895 C 301 457.893, 302.887 454.184, 307.486 450.147 C 319.767 439.363, 339.869 436.959, 358 444.104 C 368.248 448.143, 381.070 456.513, 390.775 465.498 C 397.404 471.636, 397.964 471.953, 398.381 469.812 C 398.629 468.540, 399.891 461.875, 401.186 455 L 403.540 442.500 394.366 433.500 C 383.579 422.919, 376.850 412.858, 370.287 397.500 C 365.777 386.947, 365.570 386.038, 365.182 375.132 C 364.934 368.182, 365.268 361.448, 366.042 357.803 L 367.307 351.840 363.749 348.283 C 358.810 343.343, 352.682 342.757, 345.261 346.515 M 662 344.653 C 659.614 345.620, 656.906 348.281, 655.458 351.082 C 654.324 353.275, 654.354 354.342, 655.659 358.084 C 658.158 365.256, 657.042 383.437, 653.516 393 C 647.247 410, 641.146 419.667, 628.116 433.245 L 618.731 443.025 620.301 451.262 C 621.164 455.793, 622.177 461.525, 622.551 464 C 622.925 466.475, 623.421 468.823, 623.654 469.217 C 623.886 469.611, 627.097 467.663, 630.788 464.888 C 643.861 455.062, 656.751 447.038, 664.575 443.857 C 671.123 441.195, 674.202 440.559, 682.293 440.200 C 692.912 439.727, 698.328 440.741, 706.286 444.693 C 717.127 450.077, 722.741 458.382, 720.005 464.988 C 717.026 472.180, 711.259 472.841, 703.721 466.854 C 700.849 464.573, 696.700 461.883, 694.500 460.876 C 689.047 458.379, 678.863 458.425, 673.250 460.973 C 670.913 462.034, 669 463.110, 669 463.365 C 669 463.620, 671.859 465.427, 675.354 467.381 C 686.780 473.771, 694.242 485.063, 695.847 498.392 C 697.459 511.785, 694.540 521.846, 686.423 530.874 L 682.006 535.788 684.943 542.144 C 686.558 545.640, 688.178 550.167, 688.543 552.205 C 689.296 556.417, 690.174 555.955, 676.589 558.489 C 658.540 561.856, 643.202 568.406, 637.503 575.179 C 632.559 581.055, 633.460 581.653, 653.003 585.463 C 680.802 590.884, 690.678 590.930, 708.638 585.724 C 725.453 580.850, 739.598 568.977, 747.018 553.510 C 751.873 543.387, 753.403 535.485, 752.784 523.725 C 752.368 515.818, 751.781 513.380, 748.672 506.657 C 746.677 502.344, 743.685 497.266, 742.022 495.373 C 740.360 493.479, 739 491.523, 739 491.026 C 739 490.529, 740.766 488.081, 742.924 485.588 C 749.079 478.476, 753.180 469.223, 753.758 461.138 C 754.868 445.622, 749.792 431.720, 739.153 421.139 C 731.749 413.776, 724.492 410.036, 716.139 409.279 C 709.471 408.674, 704.465 410.707, 699.500 416.037 C 691.103 425.051, 683.829 427.338, 678.402 422.669 C 676.217 420.790, 675.614 419.289, 675.289 414.919 C 674.908 409.810, 675.117 409.214, 678.945 404.500 C 681.179 401.750, 684.687 396.125, 686.740 392 C 690.225 385, 690.499 383.786, 690.846 373.791 C 691.172 364.404, 690.953 362.533, 689.064 358.633 C 686.357 353.040, 683.005 349.665, 677.524 347.011 C 673.093 344.866, 664.640 343.582, 662 344.653 M 239.287 364.750 C 236.867 369.743, 235.776 370.859, 231 373.225 C 227.533 374.942, 225.500 376.583, 225.500 377.663 C 225.500 378.810, 227.319 380.096, 231 381.552 C 235.915 383.495, 236.837 384.350, 239.672 389.587 C 241.417 392.811, 243.308 395.603, 243.874 395.791 C 244.440 395.980, 246.233 393.501, 247.858 390.282 C 250.392 385.261, 251.540 384.089, 255.938 382.029 C 263.011 378.716, 264.039 377.292, 261.008 375.006 C 259.692 374.014, 256.899 372.687, 254.801 372.058 C 251.550 371.085, 250.542 370.035, 247.979 364.958 C 246.325 361.681, 244.319 359, 243.523 359 C 242.726 359, 240.820 361.587, 239.287 364.750 M 777.937 363.409 C 776.532 366.586, 774.732 368.553, 771.494 370.451 C 769.022 371.899, 767 373.448, 767 373.893 C 767 374.337, 769.204 376.071, 771.897 377.745 C 775.362 379.899, 777.176 381.844, 778.098 384.395 C 779.774 389.030, 781.376 388.948, 784.455 384.071 C 785.819 381.910, 788.096 379.323, 789.515 378.321 C 797.134 372.941, 796.961 373.462, 791.919 371.092 C 788.596 369.530, 786.608 367.643, 784.446 364.002 C 782.826 361.273, 781.137 359.031, 780.694 359.020 C 780.250 359.009, 779.010 360.984, 777.937 363.409 M 502 384.631 C 476.035 389.753, 458.500 398.788, 444.708 414.150 C 428.884 431.777, 420 454.340, 420 476.904 C 420 493.217, 423.948 506.210, 433.599 521.655 C 443.380 537.310, 456.518 548.686, 474.600 557.160 C 487.723 563.309, 493.332 564.428, 511 564.421 C 528.844 564.414, 535.425 563.099, 548.918 556.840 C 583.097 540.988, 603.832 506.999, 601.591 470.500 C 600.853 458.483, 599.944 454.135, 595.842 443 C 585.759 415.626, 560.675 393.555, 532.267 387.060 C 523.160 384.977, 506.870 383.670, 502 384.631 M 508.259 398.705 C 503.160 399.688, 503 400.852, 503 437.023 C 503 459.423, 502.646 470.954, 501.936 471.664 C 501.351 472.249, 501.013 474.687, 501.186 477.081 C 501.451 480.752, 502.033 481.793, 504.898 483.717 C 508.855 486.376, 511.395 486.564, 515.364 484.494 C 517.499 483.380, 521.724 483, 531.959 483 C 544.343 483, 545.865 482.807, 547.470 481.033 C 549.705 478.564, 549.763 474.335, 547.592 472.161 C 546.256 470.823, 543.169 470.403, 531.717 470 L 517.500 469.500 517.235 437 C 517.089 419.125, 516.763 403.565, 516.509 402.421 C 516.148 400.793, 511.669 397.488, 510.703 398.136 C 510.591 398.211, 509.491 398.467, 508.259 398.705 M 482.235 404.091 C 479.361 405.177, 477.753 409.221, 478.948 412.364 C 480.443 416.295, 485.537 417.274, 488.345 414.171 C 491.367 410.833, 490.109 406.234, 485.500 403.770 C 484.950 403.475, 483.481 403.620, 482.235 404.091 M 532.557 406.223 C 530.462 409.214, 530.597 411.597, 533 414 C 535.639 416.639, 537.568 416.523, 540.545 413.545 C 543.523 410.568, 543.639 408.639, 541 406 C 538.346 403.346, 534.500 403.448, 532.557 406.223 M 455.413 422.493 C 452.656 426.699, 455.612 433.018, 460.321 432.985 C 463.284 432.964, 464.698 431.924, 465.838 428.927 C 468.323 422.391, 459.178 416.747, 455.413 422.493 M 557 423 C 555.900 424.100, 555 425.900, 555 427 C 555 429.745, 558.487 433, 561.429 433 C 564.324 433, 566.764 430.788, 567.617 427.390 C 568.973 421.987, 561.219 418.781, 557 423 M 439.333 447.615 C 437.798 449.957, 437.773 450.506, 439.091 452.865 C 440.129 454.724, 441.530 455.594, 443.847 455.818 C 447.941 456.215, 450 454.586, 450 450.949 C 450 444.962, 442.589 442.646, 439.333 447.615 M 573.566 446.328 C 571.423 447.895, 571.169 452.611, 573.125 454.523 C 573.881 455.263, 575.678 456.157, 577.118 456.510 C 579.203 457.020, 580.171 456.598, 581.868 454.440 C 583.041 452.950, 584 450.923, 584 449.937 C 584 445.661, 577.536 443.425, 573.566 446.328 M 434.536 472.960 C 430.780 477.111, 435.563 483.080, 441.460 481.599 C 447.962 479.968, 446.415 471, 439.632 471 C 437.603 471, 435.620 471.763, 434.536 472.960 M 577.571 472.571 C 575.415 474.728, 575.602 477.602, 578.059 480.059 C 580.961 482.961, 585.960 482.355, 587.909 478.865 C 589.227 476.506, 589.202 475.957, 587.667 473.615 C 585.661 470.553, 580.158 469.984, 577.571 472.571 M 360 478.570 C 347.308 484.457, 339.928 497.591, 342.968 508.883 C 344.332 513.946, 350.495 521.033, 356.692 524.666 C 361.389 527.418, 361.913 529.363, 360.081 537.250 C 359.512 539.704, 359.564 541, 360.232 541 C 362.167 541, 383.514 549.310, 390.500 552.783 C 399.495 557.254, 417.140 568.862, 428 577.452 C 432.675 581.150, 438.924 586.049, 441.887 588.338 C 448.741 593.632, 462.892 606.132, 465.477 609.174 C 470.427 614.999, 480.300 628.595, 483.002 633.306 C 486.313 639.078, 486.721 642.705, 484.537 646.928 C 482.919 650.058, 481.197 651, 477.093 651 C 474.036 651, 471.659 648.780, 467.460 642 C 465.926 639.525, 464.160 637.050, 463.535 636.500 C 462.909 635.950, 460.791 633.475, 458.828 631 C 445.034 613.612, 427.948 603.072, 413.474 603.021 C 404.282 602.989, 391.767 604.798, 378.500 608.077 C 359.829 612.690, 349.269 614.852, 341.813 615.587 C 338.042 615.959, 334.752 616.592, 334.504 616.993 C 334.063 617.706, 349.474 622.973, 365.500 627.587 C 390.686 634.838, 393.540 635.781, 404.500 640.482 C 411.564 643.513, 424.258 650.084, 428.440 652.876 C 430.673 654.367, 433.625 656.076, 435 656.673 C 437.576 657.793, 460.760 676.895, 467.024 683.058 C 471.050 687.020, 479.409 696.223, 486 703.951 C 488.475 706.853, 490.960 709.739, 491.521 710.364 C 492.083 710.989, 493.546 712.798, 494.771 714.385 L 497 717.270 497.011 696.885 C 497.017 685.673, 497.309 660.276, 497.660 640.447 C 498.010 620.618, 497.983 602.721, 497.599 600.676 C 496.252 593.493, 489.156 587.527, 475.449 582.050 C 457.218 574.766, 441.160 563.662, 426.930 548.500 C 415.806 536.647, 406.756 521.301, 401.625 505.592 C 397.890 494.157, 389.240 484.186, 378.500 478.935 C 371.151 475.342, 367.131 475.263, 360 478.570 M 639.500 479.899 C 631.567 484.468, 625.838 492.841, 619.542 509.068 C 612.355 527.592, 604.951 539.151, 592.044 552 C 586.795 557.225, 579.350 563.614, 575.500 566.199 C 566.619 572.160, 552.259 579.215, 544.500 581.428 C 534.294 584.339, 527.163 587.159, 525.692 588.866 C 522.370 592.720, 521.999 597.102, 522.136 630.899 C 522.210 649.380, 522.548 677.046, 522.886 692.379 L 523.500 720.258 534.793 706.174 C 545.385 692.964, 560.378 677.923, 573 667.845 C 592.889 651.965, 627.005 635.653, 658.500 626.964 C 683.397 620.096, 690.999 617.619, 689.707 616.798 C 689.043 616.376, 686.771 616.024, 684.657 616.015 C 677.692 615.988, 655.622 611.126, 645.864 607.470 C 631.503 602.089, 610.139 599.645, 600.973 602.334 C 586.836 606.481, 568.268 621.867, 555.167 640.291 C 551.728 645.126, 547.860 649.562, 546.571 650.150 C 543.152 651.707, 538.836 649.360, 537.814 645.386 C 535.774 637.455, 546.379 618.478, 560.944 604 C 570.122 594.876, 574.374 591.537, 587.500 583.148 C 590.800 581.039, 597.325 576.314, 602 572.649 C 606.675 568.984, 610.950 565.643, 611.500 565.224 C 619.012 559.508, 640.436 548.027, 651.349 543.871 L 660.197 540.500 659.701 534.827 C 659.135 528.371, 660.307 525.927, 665.175 523.409 C 666.855 522.541, 670.178 520.034, 672.560 517.838 C 678.155 512.680, 679.846 506.390, 678.011 497.552 C 674.686 481.538, 653.508 471.830, 639.500 479.899 M 440.455 498.455 C 437.467 501.442, 437.382 502.959, 440.039 505.811 C 442.446 508.395, 444.726 508.581, 447.777 506.443 C 451.989 503.494, 449.445 496, 444.232 496 C 443.504 496, 441.805 497.105, 440.455 498.455 M 574.228 497.230 C 570.571 498.993, 570.189 502.906, 573.404 505.671 C 576.724 508.527, 579.372 508.628, 582 506 C 584.728 503.272, 584.510 500.546, 581.365 498.073 C 578.423 495.758, 577.507 495.650, 574.228 497.230 M 457.400 517.765 C 455.974 518.717, 453.991 522.497, 454.032 524.184 C 454.092 526.667, 456.905 529.250, 459.549 529.250 C 464.762 529.250, 468.237 522.401, 465.003 518.503 C 463.698 516.931, 459.290 516.503, 457.400 517.765 M 557.166 518.596 C 554.001 520.813, 554.553 525.598, 558.296 528.381 C 560.875 530.298, 561.301 530.342, 563.796 528.948 C 567.545 526.853, 568.139 520.912, 564.832 518.595 C 561.956 516.581, 560.043 516.581, 557.166 518.596 M 480.571 533.571 C 478.071 536.072, 478.582 540.680, 481.577 542.643 C 485.003 544.887, 488.995 543.527, 490.275 539.679 C 492.058 534.322, 484.547 529.596, 480.571 533.571 M 533.223 533.557 C 528.729 536.704, 531.490 544, 537.174 544 C 541.433 544, 544.499 538.790, 542.235 535.400 C 541.421 534.181, 537.606 532, 536.288 532 C 535.824 532, 534.445 532.701, 533.223 533.557 M 509 537.778 C 503.880 539.427, 502.255 545.665, 506.223 548.443 C 510.961 551.762, 516 549.108, 516 543.294 C 516 539.329, 512.571 536.627, 509 537.778 M 265.392 616.750 C 265.682 617.712, 267.261 623.675, 268.901 630 C 282.145 681.058, 306.770 714.276, 346.002 734.001 C 375.760 748.963, 412.083 753.174, 436.725 744.518 C 445.798 741.331, 467.766 732.596, 469.847 731.347 C 470.267 731.095, 459.515 718.449, 449.667 707.614 C 432.114 688.298, 408.756 671.593, 387 662.793 C 377.590 658.986, 355.482 651.897, 343 648.683 C 306.822 639.368, 288.729 631.916, 272.294 619.562 C 265.634 614.555, 264.605 614.136, 265.392 616.750 M 750.119 619.599 C 732.554 632.075, 720.181 637.037, 675.500 649.520 C 629.642 662.333, 606.983 674.351, 580.619 699.846 C 569.815 710.292, 553 729.500, 553 731.394 C 553 731.727, 553.693 732, 554.540 732 C 555.387 732, 557.790 732.873, 559.881 733.940 C 567.521 737.837, 586.584 745.111, 593.451 746.749 C 604.384 749.356, 628.476 749.064, 642 746.160 C 663.107 741.627, 681.799 733.030, 699.500 719.714 C 707.049 714.036, 720.613 700.360, 726.491 692.500 C 736.886 678.602, 748.866 651.312, 754.586 628.500 C 755.965 623, 757.328 617.712, 757.614 616.750 C 758.391 614.137, 757.138 614.613, 750.119 619.599" stroke="none" fill="#0f405c" fill-rule="evenodd"/></svg>